<svg version="1.2" xmlns="http://www.w3.org/2000/svg" viewBox="0 0 620 361" width="620" height="361">
	<title>doughnut - Copy-svg</title>
	<style>
		.s0 { fill: #5399d9 } 
		.s1 { fill: #ffffff } 
		.s2 { fill: #f38645 } 
		.s3 { fill: #a8a8a8 } 
		.s4 { fill: #ffc61a } 
		.s5 { fill: #4f4747 } 
		.s6 { fill: #002060 } 
		.s7 { fill: #c00000 } 
		.s8 { fill: #548235 } 
		.s9 { fill: #69a3db } 
	</style>
	<path id="Layer" class="s0" d="m455 27c0-1.7 1.3-3 3-3h20c1.7 0 3 1.3 3 3v20c0 1.7-1.3 3-3 3h-20c-1.7 0-3-1.3-3-3z" />
	<path id="Layer" fill-rule="evenodd" class="s1" d="m510.8 33.6h-3.7v-1.8h9.5v1.8h-3.7v9.4h-2.1zm14.3 5.2q0-1.3-0.6-2.3q-0.5-1-1.5-1.6q-1-0.5-2.2-0.5q-1.3 0-2.3 0.5q-1 0.6-1.6 1.6q-0.5 1-0.5 2.3q0 1.2 0.5 2.2q0.6 1 1.7 1.6q1.1 0.5 2.5 0.5q1.1 0 2-0.3q0.9-0.4 1.4-1.1l-1-1.2q-1 1-2.4 0.9q-1.1 0.1-1.8-0.5q-0.8-0.5-0.9-1.5h6.7q0-0.4 0-0.6zm-4.3-2.8q1 0 1.6 0.6q0.7 0.6 0.8 1.5h-4.8q0.1-0.9 0.8-1.5q0.6-0.6 1.6-0.6zm9.3-1.6q-1.1 0-2 0.3q-1 0.2-1.7 0.8l0.8 1.4q0.5-0.4 1.2-0.6q0.7-0.2 1.4-0.2q1.1 0 1.6 0.5q0.5 0.4 0.5 1.3v0.2h-2.2q-1.8 0-2.7 0.7q-0.8 0.7-0.8 1.8q0 0.7 0.3 1.3q0.5 0.6 1.2 0.9q0.7 0.4 1.6 0.4q1 0 1.7-0.3q0.7-0.3 1-0.9v1.1h1.9v-5q0-1.9-1-2.8q-1-0.9-2.9-0.9zm-1.5 7q-0.4-0.3-0.4-0.8q0-1.2 1.7-1.2h2.1v1q-0.2 0.6-0.8 1q-0.6 0.3-1.4 0.3q-0.7 0-1.2-0.3zm18.7-6.9q-1-0.1-1.8 0.3q-0.8 0.4-1.4 1.1q-0.4-0.7-1.1-1.1q-0.8-0.4-1.7-0.4q-0.9 0-1.6 0.3q-0.8 0.3-1.2 0.9v-1.1h-1.9v8.6h2v-4.4q0-1.2 0.6-1.9q0.6-0.6 1.6-0.6q0.9 0 1.4 0.6q0.5 0.5 0.5 1.6v4.7h2v-4.4q0-1.2 0.6-1.9q0.6-0.6 1.6-0.6q1 0 1.5 0.6q0.5 0.5 0.5 1.6v4.7h2v-4.9q0-1.9-1-2.8q-0.9-1-2.5-1z" />
	<path id="Layer" class="s2" d="m455 69c0-1.7 1.3-3 3-3h20c1.7 0 3 1.3 3 3v20c0 1.7-1.3 3-3 3h-20c-1.7 0-3-1.3-3-3z" />
	<path id="Layer" fill-rule="evenodd" class="s1" d="m508.5 72.8h4.9q1.8 0 3.2 0.7q1.4 0.7 2.1 2q0.8 1.2 0.8 2.9q0 1.7-0.8 2.9q-0.7 1.3-2.1 2q-1.4 0.7-3.2 0.7h-4.9zm4.8 9.4q1.2 0 2.2-0.4q0.9-0.5 1.4-1.4q0.5-0.8 0.5-2q0-1.1-0.5-2q-0.5-0.9-1.4-1.3q-1-0.5-2.2-0.5h-2.7v7.7h2.7zm16.3-2.5q0 0.2-0.1 0.6h-6.7q0.2 0.9 0.9 1.5q0.8 0.5 1.9 0.5q1.4 0 2.3-0.9l1.1 1.2q-0.6 0.7-1.5 1.1q-0.9 0.3-2 0.3q-1.4 0-2.4-0.5q-1.1-0.6-1.7-1.6q-0.6-1-0.6-2.3q0-1.2 0.6-2.2q0.6-1 1.6-1.6q1-0.5 2.2-0.5q1.3 0 2.3 0.5q0.9 0.6 1.5 1.6q0.6 1 0.6 2.3zm-4.4-2.8q-0.9-0.1-1.6 0.5q-0.6 0.6-0.8 1.5h4.9q-0.2-0.9-0.8-1.5q-0.7-0.5-1.7-0.5zm14.1-1.5l-3.6 8.5h-2.1l-3.6-8.5h2l2.7 6.3l2.7-6.3zm9.1 4.3q0 0.2 0 0.6h-6.8q0.2 0.9 1 1.5q0.7 0.5 1.8 0.5q1.4 0 2.3-0.9l1.1 1.2q-0.6 0.7-1.4 1q-0.9 0.4-2 0.4q-1.4 0-2.5-0.6q-1.1-0.5-1.7-1.5q-0.5-1-0.5-2.3q0-1.2 0.5-2.2q0.6-1 1.6-1.6q1-0.6 2.3-0.6q1.2 0 2.2 0.6q1 0.5 1.5 1.6q0.6 0.9 0.6 2.3zm-4.3-2.9q-1 0-1.7 0.6q-0.6 0.6-0.8 1.5h4.9q-0.2-0.9-0.8-1.5q-0.7-0.6-1.6-0.6zm6.2-4.8h2v11.9h-2zm8.5 12q-1.3-0.1-2.4-0.6q-1-0.6-1.6-1.6q-0.6-1-0.6-2.2q0-1.3 0.6-2.3q0.6-1 1.6-1.5q1.1-0.6 2.4-0.6q1.3 0 2.3 0.6q1.1 0.5 1.6 1.5q0.6 1 0.6 2.3q0 1.2-0.6 2.2q-0.5 1-1.6 1.6q-1 0.5-2.3 0.6zm0-1.8q1.1 0 1.8-0.7q0.7-0.7 0.7-1.9q0-1.2-0.7-2q-0.7-0.7-1.8-0.7q-1.1 0-1.9 0.7q-0.7 0.8-0.7 2q0.1 1.2 0.7 1.9q0.8 0.7 1.9 0.7zm11.2-7q1.2 0 2.2 0.5q1 0.6 1.6 1.6q0.5 1 0.5 2.3q0 1.3-0.5 2.3q-0.6 1-1.6 1.5q-1 0.6-2.2 0.6q-1.7 0-2.8-1.2v4.1h-2v-11.6h1.9v1.1q0.5-0.6 1.3-0.9q0.7-0.3 1.6-0.3zm-0.2 7q1.1 0 1.8-0.7q0.7-0.7 0.7-1.9q0-1.2-0.7-2q-0.7-0.7-1.8-0.7q-0.8 0-1.3 0.3q-0.6 0.3-0.9 1q-0.4 0.6-0.4 1.4q0 0.8 0.4 1.4q0.3 0.6 0.9 0.9q0.5 0.3 1.3 0.3zm17.2-7q1.6 0 2.6 0.9q0.9 1 0.9 2.8v4.9h-2v-4.6q0-1.1-0.5-1.7q-0.5-0.6-1.4-0.6q-1 0-1.6 0.7q-0.7 0.7-0.6 1.9v4.3h-2v-4.6q-0.1-1.1-0.5-1.7q-0.5-0.6-1.5-0.6q-1 0-1.6 0.7q-0.6 0.7-0.6 1.9v4.3h-2v-8.5h1.9v1.1q0.5-0.6 1.2-0.9q0.7-0.3 1.6-0.3q1 0 1.7 0.4q0.8 0.3 1.2 1q0.5-0.6 1.4-1q0.8-0.4 1.8-0.4zm14.2 4.4q0 0.3-0.1 0.6h-6.7q0.2 1 0.9 1.5q0.8 0.6 1.9 0.6q1.4 0 2.3-1l1.1 1.3q-0.6 0.7-1.5 1q-0.9 0.4-1.9 0.4q-1.5 0-2.5-0.6q-1.1-0.6-1.7-1.5q-0.6-1.1-0.6-2.3q0-1.3 0.6-2.3q0.6-1 1.6-1.5q1-0.6 2.2-0.6q1.3 0 2.3 0.6q0.9 0.5 1.5 1.5q0.6 1 0.6 2.3zm-4.4-2.8q-0.9 0-1.6 0.6q-0.6 0.5-0.8 1.5h4.9q-0.2-0.9-0.8-1.5q-0.7-0.6-1.6-0.6zm11-1.6q1.7 0 2.6 0.9q1 1 1 2.8v4.9h-2v-4.6q0-1.1-0.5-1.7q-0.5-0.6-1.5-0.6q-1.1 0-1.8 0.7q-0.6 0.7-0.6 1.9v4.3h-2v-8.5h1.9v1.1q0.5-0.6 1.3-0.9q0.7-0.3 1.7-0.3zm11.2 8.2q-0.4 0.3-0.9 0.4q-0.5 0.1-1 0.1q-1.4 0-2.2-0.7q-0.8-0.7-0.8-2.1v-4.1h-1.4v-1.6h1.4v-2h2v2h2.3v1.6h-2.3v4q0 0.6 0.3 1q0.3 0.3 0.9 0.3q0.7 0 1.1-0.4l0.6 1.5z" />
	<path id="Layer" class="s3" d="m455 110c0-1.7 1.3-3 3-3h20c1.7 0 3 1.3 3 3v20c0 1.7-1.3 3-3 3h-20c-1.7 0-3-1.3-3-3z" />
	<path id="Layer" fill-rule="evenodd" class="s1" d="m516.8 125v-7.4l-3.7 6.1h-0.9l-3.7-6v7.3h-2v-11.2h1.7l4.5 7.4l4.3-7.4h1.7l0.1 11.2zm8-8.6q1.9 0 2.9 0.9q1 0.9 1 2.7v5h-1.9v-1q-0.4 0.5-1 0.8q-0.7 0.3-1.7 0.3q-0.9 0-1.6-0.3q-0.8-0.3-1.2-0.9q-0.4-0.6-0.3-1.3q-0.1-1.2 0.8-1.9q0.9-0.7 2.7-0.7h2.2v-0.1q0-0.9-0.5-1.4q-0.6-0.5-1.6-0.5q-0.7 0-1.4 0.2q-0.7 0.3-1.2 0.7l-0.8-1.5q0.7-0.5 1.6-0.8q1-0.2 2-0.2zm-0.2 7.3q0.7 0 1.3-0.4q0.6-0.3 0.8-1v-1h-2q-1.8 0-1.8 1.2q0 0.5 0.5 0.8q0.4 0.3 1.2 0.4zm8.6-6q0.9-1.3 3-1.3v1.9q-0.2-0.1-0.4-0.1q-1.2 0-1.8 0.7q-0.7 0.7-0.7 2v4.1h-2v-8.5h1.9zm8.2 3.6l-1.5 1.4v2.3h-2v-11.9h2v7.2l4.2-3.9h2.4l-3.6 3.6l3.9 5h-2.4l-3-3.7zm14.4-0.6q0 0.2 0 0.6h-6.7q0.1 1 0.9 1.5q0.7 0.6 1.8 0.6q1.4 0 2.3-1l1.1 1.3q-0.6 0.7-1.4 1q-0.9 0.3-2 0.4q-1.4-0.1-2.5-0.6q-1.1-0.6-1.7-1.6q-0.5-1-0.5-2.2q0-1.3 0.5-2.3q0.6-1 1.6-1.5q1-0.6 2.3-0.6q1.2 0 2.2 0.6q1 0.5 1.5 1.5q0.6 1 0.6 2.3zm-4.3-2.8q-1 0-1.7 0.6q-0.6 0.5-0.8 1.5h4.9q-0.2-1-0.8-1.5q-0.7-0.6-1.6-0.6zm11.4 6.6q-0.4 0.3-0.9 0.4q-0.5 0.1-1.1 0.1q-1.4 0-2.1-0.7q-0.8-0.7-0.8-2.1v-4.1h-1.4v-1.6h1.4v-2h2v2h2.3v1.6h-2.3v4q0 0.6 0.3 1q0.3 0.3 0.9 0.3q0.6 0 1.1-0.4l0.5 1.5zm1.7-8.1h2v8.5h-2zm1-1.4q-0.5 0-0.9-0.3q-0.4-0.4-0.4-0.9q0-0.5 0.4-0.8q0.4-0.4 0.9-0.4q0.5 0 0.9 0.4q0.4 0.3 0.4 0.8q0 0.5-0.4 0.9q-0.3 0.3-0.9 0.3zm8.5 1.3q1.6 0 2.6 1q0.9 0.9 0.9 2.8v4.9h-2v-4.7q0-1.1-0.5-1.6q-0.5-0.6-1.5-0.6q-1.1 0-1.7 0.6q-0.7 0.7-0.7 1.9v4.4h-2v-8.6h1.9v1.1q0.5-0.6 1.3-0.9q0.7-0.3 1.7-0.3zm14.6 0.1v7.3q0 4.5-4.6 4.5q-1.2 0-2.3-0.3q-1.1-0.3-1.8-0.9l0.9-1.5q0.5 0.4 1.4 0.7q0.8 0.3 1.7 0.3q1.4 0 2.1-0.6q0.6-0.7 0.6-2v-0.4q-0.5 0.5-1.2 0.8q-0.8 0.3-1.6 0.3q-1.3 0-2.2-0.5q-1-0.5-1.6-1.5q-0.6-0.9-0.6-2.1q0-1.3 0.6-2.2q0.6-0.9 1.6-1.4q0.9-0.6 2.2-0.6q0.9 0 1.6 0.3q0.8 0.3 1.3 1v-1.2h1.9zm-4.5 6.5q1.1 0 1.8-0.7q0.8-0.7 0.8-1.8q0-1-0.8-1.7q-0.7-0.7-1.8-0.7q-1.2 0-1.9 0.7q-0.8 0.7-0.8 1.7q0 1.1 0.8 1.8q0.7 0.7 1.9 0.7z" />
	<path id="Layer" class="s4" d="m455 150c0-1.7 1.3-3 3-3h20c1.7 0 3 1.3 3 3v20c0 1.7-1.3 3-3 3h-20c-1.7 0-3-1.3-3-3z" />
	<path id="Layer" fill-rule="evenodd" class="s1" d="m515.8 163.4h-5.6l-1.1 2.6h-2.2l5.1-11.2h2l5.1 11.2h-2.2c0 0-1.1-2.6-1.1-2.6zm-0.7-1.6l-2.1-4.9l-2.1 4.9zm5.2-4.3h2v8.5h-2zm1-1.4q-0.5 0-0.9-0.4q-0.4-0.3-0.4-0.8q0-0.5 0.4-0.9q0.4-0.3 0.9-0.3q0.5 0 0.9 0.3q0.4 0.3 0.4 0.8q0 0.6-0.4 0.9q-0.3 0.4-0.9 0.4zm5.5 2.6q0.9-1.3 3.1-1.3v1.9q-0.3 0-0.5 0q-1.2 0-1.8 0.6q-0.7 0.7-0.7 2v4.1h-2v-8.5h1.9zm13-4.6v11.9h-1.9v-1.1q-0.5 0.6-1.2 0.9q-0.7 0.3-1.6 0.3q-1.2 0-2.2-0.5q-1-0.6-1.6-1.6q-0.5-1-0.5-2.3q0-1.3 0.5-2.3q0.6-1 1.6-1.5q1-0.6 2.2-0.6q0.8 0.1 1.5 0.3q0.8 0.3 1.2 0.9v-4.4zm-4.5 10.3q0.8 0 1.3-0.3q0.6-0.4 0.9-1q0.4-0.6 0.4-1.4q0-0.8-0.4-1.4q-0.3-0.6-0.9-0.9q-0.5-0.4-1.3-0.4q-0.7 0-1.3 0.4q-0.5 0.3-0.9 0.9q-0.3 0.6-0.3 1.4q0 0.8 0.3 1.4q0.4 0.6 0.9 1q0.6 0.3 1.3 0.3zm9.1-5.7q0.8-1.4 3-1.3v1.9q-0.3-0.1-0.5-0.1q-1.1 0-1.8 0.7q-0.6 0.7-0.6 1.9v4.2h-2v-8.6h1.9zm8.5 7.4q-1.3 0-2.4-0.5q-1-0.6-1.6-1.6q-0.6-1-0.6-2.2q0-1.3 0.6-2.3q0.6-1 1.6-1.5q1.1-0.6 2.4-0.6q1.3 0 2.3 0.6q1.1 0.5 1.6 1.5q0.6 1 0.6 2.3q0 1.2-0.6 2.2q-0.5 1-1.6 1.6q-1 0.5-2.3 0.5zm0-1.7q1.1 0 1.8-0.7q0.7-0.7 0.7-1.9q0-1.2-0.7-2q-0.7-0.7-1.8-0.7q-1.1 0-1.9 0.7q-0.7 0.8-0.7 2q0 1.2 0.7 1.9q0.8 0.7 1.9 0.7zm11.2-7q1.2 0 2.2 0.5q1 0.6 1.5 1.6q0.6 1 0.6 2.3q0 1.3-0.6 2.3q-0.5 1-1.5 1.5q-1 0.5-2.2 0.5q-1.7 0.1-2.8-1.1v4.1h-2v-11.6h1.9v1.1q0.5-0.6 1.3-0.9q0.7-0.3 1.6-0.3zm-0.2 7q1.1 0 1.8-0.7q0.7-0.7 0.7-1.9q0-1.2-0.7-2q-0.7-0.7-1.8-0.7q-0.8 0-1.3 0.3q-0.6 0.3-1 0.9q-0.3 0.7-0.3 1.5q0 0.8 0.3 1.4q0.4 0.6 1 0.9q0.5 0.3 1.3 0.3z" />
	<path id="Layer" class="s5" d="m455 191c0-1.7 1.3-3 3-3h20c1.7 0 3 1.3 3 3v20c0 1.7-1.3 3-3 3h-20c-1.7 0-3-1.3-3-3z" />
	<path id="Layer" fill-rule="evenodd" class="s1" d="m513.1 195.8q1.5 0 2.5 0.5q1.1 0.5 1.7 1.4q0.6 0.9 0.6 2.1q0 1.2-0.6 2.1q-0.6 0.9-1.7 1.4q-1 0.5-2.5 0.5h-2.5v3.2h-2.1v-11.2c0 0 4.6 0 4.6 0zm-0.1 6.2q1.4 0 2.1-0.6q0.7-0.5 0.7-1.6q0-1.1-0.7-1.7q-0.7-0.5-2.1-0.6h-2.4v4.5h2.4zm8.6-2.3q0.9-1.3 3-1.3v1.9q-0.2-0.1-0.4-0.1q-1.2 0-1.9 0.7q-0.6 0.7-0.6 1.9v4.2h-2v-8.6h1.9zm4.7-1.2h2v8.5h-2zm1-1.4q-0.5 0-0.9-0.3q-0.3-0.4-0.3-0.9q0-0.5 0.3-0.8q0.4-0.4 0.9-0.4q0.6 0 0.9 0.4q0.4 0.3 0.4 0.8q0 0.5-0.4 0.9q-0.3 0.3-0.9 0.3zm11.7 1.4l-3.7 8.6h-2.1l-3.6-8.6h2.1l2.6 6.4l2.8-6.4zm4.2-0.1q1.9 0 2.9 0.9q1 0.9 1 2.8v5h-1.9v-1.1q-0.4 0.6-1 0.9q-0.7 0.3-1.7 0.3q-0.9 0-1.7-0.3q-0.7-0.4-1.1-0.9q-0.4-0.6-0.4-1.4q0-1.1 0.9-1.8q0.9-0.7 2.7-0.7h2.2v-0.1q0-0.9-0.5-1.4q-0.6-0.5-1.6-0.5q-0.7 0-1.4 0.2q-0.7 0.2-1.2 0.6l-0.8-1.4q0.7-0.5 1.6-0.8q1-0.3 2-0.3zm-0.2 7.3q0.7 0 1.3-0.3q0.6-0.4 0.8-1v-1h-2q-1.8 0-1.8 1.1q0 0.6 0.5 0.9q0.4 0.3 1.2 0.3zm11.8 0.9q-0.3 0.3-0.8 0.4q-0.5 0.2-1.1 0.2q-1.4 0-2.2-0.8q-0.7-0.7-0.7-2.1v-4.1h-1.5v-1.6h1.5v-2h2v2h2.2v1.6h-2.2v4q0 0.7 0.3 1q0.3 0.3 0.8 0.3q0.7 0 1.2-0.3l0.5 1.4zm9.4-3.8q0 0.3 0 0.6h-6.7q0.2 1 0.9 1.5q0.7 0.6 1.9 0.6q1.4 0 2.3-1l1 1.3q-0.5 0.7-1.4 1q-0.9 0.4-2 0.4q-1.4 0-2.5-0.6q-1.1-0.6-1.6-1.6q-0.6-1-0.6-2.2q0-1.3 0.5-2.3q0.6-1 1.6-1.5q1-0.6 2.3-0.6q1.2 0 2.2 0.6q1 0.5 1.6 1.5q0.5 1 0.5 2.3zm-4.3-2.8q-1 0-1.6 0.6q-0.7 0.5-0.8 1.5h4.8q-0.1-1-0.8-1.5q-0.6-0.6-1.6-0.6z" />
	<path id="Layer" class="s6" d="m455 232c0-1.7 1.3-3 3-3h20c1.7 0 3 1.3 3 3v20c0 1.7-1.3 3-3 3h-20c-1.7 0-3-1.3-3-3z" />
	<path id="Layer" fill-rule="evenodd" class="s1" d="m513.1 236.8q1.5 0 2.5 0.5q1.1 0.5 1.7 1.4q0.6 0.9 0.6 2.1q0 1.2-0.6 2.1q-0.6 0.9-1.7 1.4q-1 0.5-2.5 0.5h-2.5v3.2h-2.1v-11.2c0 0 4.6 0 4.6 0zm-0.1 6.2q1.4 0 2.1-0.6q0.7-0.5 0.7-1.6q0-1.1-0.7-1.7q-0.7-0.5-2.1-0.6h-2.4v4.5h2.4zm8.6-2.3q0.9-1.3 3-1.3v1.9q-0.2-0.1-0.4-0.1q-1.2 0-1.9 0.7q-0.6 0.7-0.6 1.9v4.2h-2v-8.6h1.9zm12.7 3.1q0 0.2-0.1 0.6h-6.7q0.2 1 1 1.5q0.7 0.5 1.8 0.5q1.4 0 2.3-0.9l1.1 1.2q-0.6 0.7-1.5 1.1q-0.8 0.3-1.9 0.3q-1.4 0-2.5-0.5q-1.1-0.6-1.7-1.6q-0.5-1-0.6-2.2q0.1-1.3 0.6-2.3q0.6-1 1.6-1.6q1-0.5 2.3-0.5q1.2 0 2.2 0.5q1 0.6 1.5 1.6q0.6 1 0.6 2.3zm-4.3-2.8q-1 0-1.7 0.6q-0.6 0.5-0.8 1.5h4.9q-0.2-1-0.8-1.5q-0.7-0.6-1.6-0.6zm5.9 1.7h4.4v1.7h-4.4zm10.1 5.4q-1.3 0-2.6-0.3q-1.1-0.4-1.9-1l0.8-1.6q0.7 0.5 1.6 0.9q1.1 0.3 2.1 0.3q1.2 0 1.8-0.4q0.7-0.4 0.6-1.1q0-0.4-0.3-0.7q-0.3-0.3-0.9-0.5q-0.5-0.2-1.4-0.4q-1.3-0.3-2.1-0.6q-0.8-0.3-1.3-1q-0.6-0.6-0.6-1.7q0-1 0.5-1.7q0.5-0.8 1.5-1.2q1-0.5 2.5-0.5q1 0 2 0.3q1 0.2 1.7 0.7l-0.6 1.6q-0.7-0.4-1.6-0.6q-0.7-0.3-1.5-0.3q-1.2 0-1.8 0.5q-0.6 0.4-0.6 1.1q0 0.4 0.3 0.7q0.4 0.3 0.9 0.5q0.5 0.2 1.4 0.4q1.3 0.3 2.1 0.6q0.8 0.3 1.3 1q0.6 0.6 0.6 1.7q0 0.9-0.5 1.7q-0.5 0.7-1.5 1.2q-1 0.4-2.5 0.4zm9.6-8.8q1.9 0 2.9 0.9q1 0.9 1 2.8v5h-1.9v-1.1q-0.3 0.6-1 0.9q-0.7 0.3-1.6 0.3q-1 0-1.7-0.3q-0.7-0.4-1.1-0.9q-0.4-0.6-0.4-1.4q0-1.1 0.8-1.8q0.9-0.7 2.7-0.7h2.2v-0.1q0-0.9-0.5-1.4q-0.5-0.5-1.6-0.5q-0.7 0-1.4 0.2q-0.7 0.2-1.2 0.6l-0.7-1.4q0.6-0.5 1.6-0.8q0.9-0.3 2-0.3zm-0.3 7.3q0.7 0 1.3-0.3q0.6-0.4 0.9-1v-1h-2.1q-1.7 0-1.7 1.1q0 0.6 0.4 0.9q0.4 0.3 1.2 0.3zm6.7-10.5h2v11.9h-2zm12.7 7.6q0 0.2 0 0.6h-6.7q0.1 1 0.9 1.5q0.7 0.5 1.8 0.5q1.4 0 2.4-0.9l1 1.2q-0.6 0.7-1.4 1.1q-0.9 0.3-2 0.3q-1.4 0-2.5-0.5q-1.1-0.6-1.7-1.6q-0.5-1-0.5-2.2q0-1.3 0.5-2.3q0.6-1 1.6-1.6q1-0.5 2.3-0.5q1.2 0 2.2 0.5q1 0.6 1.5 1.6q0.6 1 0.6 2.3zm-4.3-2.8q-1 0-1.7 0.6q-0.6 0.5-0.8 1.5h4.9q-0.1-1-0.8-1.5q-0.6-0.6-1.6-0.6z" />
	<path id="Layer" class="s7" d="m455 273c0-1.7 1.3-3 3-3h20c1.7 0 3 1.3 3 3v20c0 1.7-1.3 3-3 3h-20c-1.7 0-3-1.3-3-3z" />
	<path id="Layer" fill-rule="evenodd" class="s1" d="m508.5 277.8h2.1v9.4h5.8v1.8h-7.9zm9.4 2.7h2v8.5h-2zm1-1.4q-0.5 0-0.9-0.3q-0.4-0.4-0.4-0.9q0-0.5 0.4-0.9q0.4-0.3 0.9-0.3q0.5 0 0.9 0.3q0.4 0.3 0.4 0.8q0 0.6-0.4 0.9q-0.3 0.4-0.9 0.4zm12 1.4v11.7h-2v-4.2q-1 1.2-2.8 1.2q-1.2 0-2.2-0.6q-1-0.5-1.6-1.5q-0.5-1-0.5-2.3q0-1.3 0.6-2.3q0.5-1 1.5-1.6q1-0.5 2.2-0.5q0.9 0 1.6 0.3q0.8 0.3 1.3 0.9v-1.1c0 0 1.9 0 1.9 0zm-4.5 6.9q1.1 0 1.8-0.7q0.7-0.7 0.7-1.9q0-1.2-0.7-2q-0.7-0.7-1.8-0.7q-1.1 0-1.9 0.7q-0.7 0.8-0.7 2q0 1.2 0.7 1.9q0.8 0.7 1.9 0.7zm15.4-6.9v8.5h-1.9v-1q-0.5 0.5-1.2 0.9q-0.8 0.3-1.6 0.3q-1.7 0-2.7-1q-1-0.9-1-2.8v-4.9h2v4.6q0 1.2 0.5 1.7q0.6 0.6 1.5 0.6q1.1 0 1.7-0.7q0.7-0.6 0.7-1.9v-4.3c0 0 2 0 2 0zm2.6 0h2v8.5h-2zm1-1.4q-0.6 0-0.9-0.3q-0.4-0.4-0.4-0.9q0-0.5 0.4-0.8q0.4-0.4 0.9-0.4q0.5 0 0.9 0.4q0.4 0.3 0.4 0.8q0 0.5-0.4 0.9q-0.4 0.3-0.9 0.3zm12-1.9v11.9h-1.9v-1.1q-0.5 0.6-1.3 0.9q-0.7 0.3-1.6 0.3q-1.2 0-2.2-0.5q-1-0.6-1.5-1.6q-0.6-1-0.6-2.3q0-1.3 0.6-2.3q0.5-1 1.5-1.5q1-0.6 2.2-0.6q0.9 0 1.6 0.3q0.7 0.3 1.2 0.9v-4.4zm-4.5 10.3q0.7 0 1.3-0.3q0.5-0.4 0.9-1q0.3-0.6 0.3-1.4q0-0.8-0.3-1.4q-0.4-0.6-0.9-0.9q-0.6-0.4-1.3-0.4q-0.7 0-1.3 0.4q-0.6 0.3-0.9 0.9q-0.4 0.6-0.4 1.4q0 0.8 0.4 1.4q0.3 0.6 0.9 1q0.5 0.3 1.3 0.3zm7.1-7h2v8.6h-2zm1-1.4q-0.5 0-0.9-0.4q-0.4-0.3-0.4-0.8q0-0.5 0.4-0.9q0.4-0.3 0.9-0.3q0.6 0 0.9 0.3q0.4 0.3 0.4 0.8q0 0.6-0.4 0.9q-0.3 0.4-0.9 0.4zm8.8 9.5q-0.4 0.2-0.9 0.4q-0.5 0.1-1.1 0.1q-1.4 0-2.1-0.7q-0.8-0.7-0.8-2.2v-4.1h-1.4v-1.6h1.4v-1.9h2v1.9h2.3v1.6h-2.3v4.1q0 0.6 0.3 1q0.3 0.3 0.9 0.3q0.6 0 1.1-0.4l0.5 1.4zm9.5-8l-4 9.2q-0.5 1.4-1.3 1.9q-0.8 0.6-2 0.6q-0.6 0-1.2-0.2q-0.7-0.2-1-0.6l0.8-1.4q0.2 0.2 0.6 0.4q0.4 0.2 0.8 0.2q0.6 0 0.9-0.3q0.3-0.3 0.6-0.9l0.2-0.4l-3.8-8.5h2.1l2.7 6.3l2.7-6.3h1.9z" />
	<path id="Layer" class="s8" d="m455 314c0-1.7 1.3-3 3-3h20c1.7 0 3 1.3 3 3v20c0 1.7-1.3 3-3 3h-20c-1.7 0-3-1.3-3-3z" />
	<path id="Layer" fill-rule="evenodd" class="s1" d="m512 330.2q-1.3 0-2.5-0.4q-1.2-0.4-1.9-1l0.7-1.6q0.7 0.5 1.7 0.9q1 0.3 2 0.3q1.2 0 1.9-0.4q0.6-0.4 0.6-1q0-0.5-0.4-0.8q-0.3-0.3-0.8-0.5q-0.6-0.2-1.5-0.4q-1.3-0.3-2.1-0.6q-0.7-0.3-1.3-1q-0.6-0.6-0.6-1.7q0-0.9 0.5-1.7q0.5-0.8 1.5-1.2q1.1-0.5 2.5-0.5q1.1 0 2.1 0.3q0.9 0.2 1.7 0.7l-0.7 1.7q-0.7-0.5-1.5-0.7q-0.8-0.2-1.6-0.2q-1.2 0-1.8 0.4q-0.6 0.4-0.6 1.1q0 0.5 0.3 0.8q0.4 0.3 0.9 0.4q0.5 0.2 1.5 0.4q1.2 0.3 2 0.7q0.8 0.3 1.4 0.9q0.5 0.6 0.5 1.7q0 1-0.5 1.7q-0.5 0.8-1.5 1.2q-1 0.5-2.5 0.5zm11.5-0.7q-0.3 0.3-0.8 0.5q-0.5 0.1-1.1 0.1q-1.4 0-2.2-0.7q-0.7-0.8-0.7-2.2v-4.1h-1.4v-1.6h1.4v-1.9h2v1.9h2.3v1.6h-2.3v4.1q0 0.6 0.3 0.9q0.3 0.4 0.9 0.4q0.6 0 1.1-0.4l0.5 1.4zm4.9-8.2q1.9 0 2.9 1q1 0.9 1 2.7v5h-1.9v-1.1q-0.3 0.6-1 0.9q-0.7 0.3-1.6 0.3q-1 0-1.7-0.3q-0.7-0.4-1.1-0.9q-0.4-0.6-0.4-1.4q0-1.1 0.8-1.8q0.9-0.7 2.7-0.7h2.2v-0.1q0-0.9-0.5-1.4q-0.5-0.5-1.6-0.5q-0.7 0-1.4 0.2q-0.7 0.3-1.2 0.7l-0.8-1.5q0.7-0.5 1.7-0.8q0.9-0.3 2-0.3zm-0.3 7.3q0.7 0 1.3-0.3q0.6-0.4 0.9-1v-1h-2.1q-1.7 0-1.7 1.2q0 0.5 0.4 0.8q0.4 0.3 1.2 0.3zm10.2-2.3l-1.5 1.4v2.3h-2v-11.9h2v7.2l4.2-3.8h2.4l-3.6 3.5l3.9 5h-2.4l-3-3.7zm14.4-0.5q0 0.2-0.1 0.6h-6.7q0.2 0.9 0.9 1.5q0.8 0.5 1.9 0.5q1.4 0 2.3-0.9l1.1 1.2q-0.6 0.7-1.5 1q-0.9 0.4-1.9 0.4q-1.5 0-2.5-0.6q-1.1-0.5-1.7-1.5q-0.6-1-0.6-2.3q0-1.2 0.6-2.2q0.6-1 1.6-1.6q1-0.6 2.2-0.6q1.3 0 2.3 0.6q0.9 0.5 1.5 1.6q0.6 0.9 0.6 2.3zm-4.4-2.9q-0.9 0-1.6 0.6q-0.6 0.6-0.8 1.5h4.9q-0.2-0.9-0.8-1.5q-0.7-0.6-1.6-0.6z" />
	<path id="Layer" class="s8" d="m142.9 303.3c16.1 5 33.1 6.7 49.9 5.1c16.7-1.7 33.1-6.5 48-14.5c14.9-7.9 28-18.7 38.8-31.7c10.7-13 18.8-28 23.7-44.1l49.8 15.2c-7 22.7-18.3 43.8-33.4 62.1c-15.1 18.3-33.6 33.4-54.5 44.5c-21 11.1-43.9 18-67.5 20.3c-23.6 2.2-47.4-0.2-70-7.1z" />
	<path id="Layer" class="s7" d="m56.9 215.3c7.7 27.5 24.4 51.7 47.4 68.6c23.1 17 51.1 25.8 79.7 25l1.4 52c-40.2 1.1-79.6-11.2-111.9-35c-32.4-23.9-55.9-57.8-66.7-96.5l50.1-14.1z" />
	<path id="Layer" class="s3" d="m35.5 73c11.3-15.2 24.9-28.5 40.3-39.5l30.2 42.4c-11 7.8-20.7 17.3-28.7 28.1l-41.8-31z" />
	<path id="Layer" class="s4" d="m9.6 122.5c6.1-18 14.9-34.8 26.3-50l41.7 31.2c-8.1 10.8-14.4 22.8-18.7 35.5z" />
	<path id="Layer" class="s2" d="m75.4 33.7c15.4-11 32.5-19.5 50.5-25.3l15.8 49.7c-12.9 4-25 10.1-36 18l-30.3-42.4z" />
	<path id="Layer" class="s5" d="m20.4 263.9c-11.3-21.8-18.1-45.8-19.9-70.3c-1.8-24.6 1.5-49.3 9.6-72.6l49.1 17.2c-5.7 16.5-8.1 34.1-6.8 51.6c1.3 17.5 6.1 34.5 14.2 50.1c0 0-46.2 24-46.1 24.1z" />
	<path id="Layer" class="s6" d="m180.5 0c28.3 0 56.1 6.6 81.4 19.4c25.2 12.7 47.1 31.2 63.9 54c16.7 22.7 27.9 49.1 32.7 77c4.7 27.8 2.8 56.4-5.6 83.4l-49.7-15.3c6-19.3 7.3-39.6 3.9-59.4c-3.3-19.9-11.3-38.6-23.2-54.8c-12-16.2-27.5-29.4-45.5-38.5c-18-9-37.8-13.7-57.9-13.7z" />
	<path id="Layer" class="s9" d="m126 8.4c18.1-5.7 36.9-8.5 55.9-8.4l-0.4 52c-13.5-0.1-26.9 2-39.8 6l-15.7-49.6z" />
	<g id="Layer">
	</g>
	<g id="Layer">
		<path id="30%" fill="#ffffff" aria-label="30%"  d="m291.71 91.75q1.92 0.38 2.94 1.49q1.02 1.1 1.02 2.85q0 2.45-1.75 3.79q-1.74 1.35-5.32 1.35q-1.24 0-2.5-0.19q-1.26-0.2-2.37-0.56v-1.6q1.19 0.36 2.43 0.56q1.24 0.19 2.4 0.19q5.16 0 5.16-3.65q0-3.3-4.6-3.3h-2.75v-1.59h1.47q5.2 0 5.2-3.37q0-1.48-1.1-2.3q-1.09-0.81-3.17-0.81q-2.31 0-4.47 0.68v-1.61q1.04-0.32 2.24-0.49q1.2-0.18 2.39-0.18q1.95 0 3.32 0.55q1.38 0.54 2.08 1.58q0.71 1.02 0.71 2.44q0 1.54-0.89 2.62q-0.88 1.07-2.44 1.55zm13.5 9.48q-3.26 0-5.07-2.2q-1.8-2.19-1.8-6.91q0-4.73 1.78-6.91q1.8-2.2 5.09-2.2q3.29 0 5.08 2.2q1.8 2.18 1.8 6.91q0 4.72-1.81 6.91q-1.8 2.2-5.07 2.2zm0-1.74q1.54 0 2.59-0.69q1.07-0.68 1.65-2.3q0.59-1.62 0.59-4.34q0-2.76-0.59-4.4q-0.58-1.63-1.65-2.31q-1.05-0.7-2.59-0.7q-1.53 0-2.6 0.69q-1.06 0.68-1.65 2.3q-0.57 1.62-0.57 4.34q0 2.76 0.57 4.4q0.59 1.63 1.65 2.32q1.07 0.69 2.6 0.69zm14.4-5.39q-1.32 0-2.31-0.59q-1-0.6-1.56-1.83q-0.56-1.24-0.56-3.11q0-2.8 1.19-4.18q1.2-1.38 3.24-1.38q2.05 0 3.24 1.38q1.19 1.38 1.19 4.18q0 1.87-0.56 3.11q-0.56 1.23-1.55 1.83q-1 0.59-2.32 0.59zm2.61 6.9h-1.82l9.03-17.76h1.81zm-2.6-8.29q2.76 0 2.76-4.13q0-2.18-0.74-3.17q-0.73-0.99-2.02-0.99q-2.75 0-2.75 4.12q0 2.18 0.72 3.17q0.73 1 2.03 1zm12.4 8.51q-1.32 0-2.31-0.59q-0.99-0.6-1.55-1.84q-0.55-1.25-0.55-3.12q0-2.78 1.19-4.16q1.18-1.38 3.22-1.38q2.06 0 3.24 1.38q1.19 1.38 1.19 4.16q0 1.87-0.56 3.12q-0.55 1.24-1.55 1.84q-0.98 0.59-2.32 0.59zm0-1.41q2.76 0 2.76-4.11q0-2.19-0.73-3.17q-0.73-1-2.03-1q-1.28 0-2.01 0.99q-0.73 0.98-0.73 3.14q0 2.16 0.73 3.16q0.73 0.99 2.01 0.99z" />
	</g>
	<g id="Layer">
	</g>
	<g id="Layer">
	</g>
	<g id="Layer">
	</g>
	<g id="Layer">
		<path id="5%" fill="#ffffff" aria-label="5%"  d="m58 67.73q2.91 0.15 4.66 0.78q1.76 0.61 2.56 1.69q0.79 1.08 0.78 2.71q0 2.59-1.79 3.96q-1.78 1.36-5.28 1.36q-1.23 0-2.49-0.21q-1.26-0.2-2.38-0.56v-1.61q1.16 0.36 2.4 0.57q1.24 0.19 2.42 0.19q2.6 0 3.88-0.91q1.28-0.93 1.28-2.78q0-1.16-0.61-1.89q-0.6-0.75-2.04-1.17q-1.43-0.42-3.94-0.56l-2.63-0.14l0.65-8.92h9.77v1.6h-7.94l-0.41 5.83zm14.71 3.37q-1.32 0-2.32-0.59q-0.99-0.6-1.56-1.83q-0.55-1.24-0.55-3.11q0-2.8 1.19-4.18q1.2-1.38 3.24-1.38q2.05 0 3.24 1.38q1.19 1.38 1.19 4.18q0 1.87-0.57 3.11q-0.55 1.23-1.54 1.83q-1 0.59-2.32 0.59zm2.6 6.9h-1.81l9.03-17.76h1.81zm-2.61-8.29q2.76 0 2.76-4.13q0-2.18-0.73-3.17q-0.73-0.99-2.03-0.99q-2.74 0-2.74 4.12q0 2.18 0.72 3.17q0.73 1 2.02 1zm12.41 8.51q-1.32 0-2.31-0.59q-0.99-0.6-1.55-1.84q-0.55-1.25-0.55-3.12q0-2.78 1.18-4.16q1.19-1.38 3.23-1.38q2.05 0 3.24 1.38q1.19 1.38 1.19 4.16q0 1.87-0.56 3.12q-0.56 1.24-1.55 1.84q-0.99 0.59-2.32 0.59zm0-1.41q2.76 0 2.76-4.11q0-2.19-0.73-3.17q-0.73-1-2.03-1q-1.28 0-2.01 0.99q-0.74 0.98-0.74 3.14q0 2.16 0.74 3.16q0.73 0.99 2.01 0.99z" />
		<path id="5%" fill="#ffffff" aria-label="5%"  d="m98 41.73q2.91 0.15 4.66 0.78q1.76 0.61 2.56 1.69q0.79 1.08 0.78 2.71q0 2.59-1.79 3.96q-1.78 1.36-5.28 1.36q-1.23 0-2.49-0.21q-1.26-0.2-2.38-0.56v-1.61q1.16 0.36 2.4 0.57q1.24 0.19 2.42 0.19q2.6 0 3.88-0.91q1.28-0.93 1.28-2.78q0-1.16-0.61-1.89q-0.6-0.75-2.04-1.17q-1.43-0.42-3.94-0.56l-2.63-0.14l0.65-8.92h9.77v1.6h-7.94l-0.41 5.83zm14.71 3.37q-1.32 0-2.32-0.59q-0.99-0.6-1.56-1.83q-0.55-1.24-0.55-3.11q0-2.8 1.19-4.18q1.2-1.38 3.24-1.38q2.05 0 3.24 1.38q1.19 1.38 1.19 4.18q0 1.87-0.57 3.11q-0.55 1.23-1.54 1.83q-1 0.59-2.32 0.59zm2.6 6.9h-1.81l9.03-17.76h1.81zm-2.61-8.29q2.76 0 2.76-4.13q0-2.18-0.73-3.17q-0.73-0.99-2.03-0.99q-2.74 0-2.74 4.12q0 2.18 0.72 3.17q0.73 1 2.02 1zm12.41 8.51q-1.32 0-2.31-0.59q-0.99-0.6-1.55-1.84q-0.55-1.25-0.55-3.12q0-2.78 1.18-4.16q1.19-1.38 3.23-1.38q2.05 0 3.24 1.38q1.19 1.38 1.19 4.16q0 1.87-0.56 3.12q-0.56 1.24-1.55 1.84q-0.99 0.59-2.32 0.59zm0-1.41q2.76 0 2.76-4.11q0-2.19-0.73-3.17q-0.73-1-2.03-1q-1.28 0-2.01 0.99q-0.74 0.98-0.74 3.14q0 2.16 0.74 3.16q0.73 0.99 2.01 0.99z" />
		<path id="5% copy 2" fill="#ffffff" aria-label="5%"  d="m147 25.73q2.91 0.15 4.66 0.78q1.76 0.61 2.56 1.69q0.79 1.08 0.78 2.71q0 2.59-1.79 3.96q-1.78 1.36-5.28 1.36q-1.23 0-2.49-0.21q-1.26-0.2-2.38-0.56v-1.61q1.16 0.36 2.4 0.57q1.24 0.19 2.42 0.19q2.6 0 3.88-0.91q1.28-0.93 1.28-2.78q0-1.16-0.61-1.89q-0.6-0.75-2.04-1.17q-1.43-0.42-3.94-0.56l-2.63-0.14l0.65-8.92h9.77v1.6h-7.94l-0.41 5.83zm14.71 3.37q-1.32 0-2.32-0.59q-0.99-0.6-1.56-1.83q-0.55-1.24-0.55-3.11q0-2.8 1.19-4.18q1.2-1.38 3.24-1.38q2.05 0 3.24 1.38q1.19 1.38 1.19 4.18q0 1.87-0.57 3.11q-0.55 1.23-1.54 1.83q-1 0.59-2.32 0.59zm2.6 6.9h-1.81l9.03-17.76h1.81zm-2.61-8.29q2.76 0 2.76-4.13q0-2.18-0.73-3.17q-0.73-0.99-2.03-0.99q-2.74 0-2.74 4.12q0 2.18 0.72 3.17q0.73 1 2.02 1zm12.41 8.51q-1.32 0-2.31-0.59q-0.99-0.6-1.55-1.84q-0.55-1.25-0.55-3.12q0-2.78 1.18-4.16q1.19-1.38 3.23-1.38q2.05 0 3.24 1.38q1.19 1.38 1.19 4.16q0 1.87-0.56 3.12q-0.56 1.24-1.55 1.84q-0.99 0.59-2.32 0.59zm0-1.41q2.76 0 2.76-4.11q0-2.19-0.73-3.17q-0.73-1-2.03-1q-1.28 0-2.01 0.99q-0.74 0.98-0.74 3.14q0 2.16 0.74 3.16q0.73 0.99 2.01 0.99z" />
		<path id="5% copy 4" fill="#ffffff" aria-label="5%"  d="m147 25.73q2.91 0.15 4.66 0.78q1.76 0.61 2.56 1.69q0.79 1.08 0.78 2.71q0 2.59-1.79 3.96q-1.78 1.36-5.28 1.36q-1.23 0-2.49-0.21q-1.26-0.2-2.38-0.56v-1.61q1.16 0.36 2.4 0.57q1.24 0.19 2.42 0.19q2.6 0 3.88-0.91q1.28-0.93 1.28-2.78q0-1.16-0.61-1.89q-0.6-0.75-2.04-1.17q-1.43-0.42-3.94-0.56l-2.63-0.14l0.65-8.92h9.77v1.6h-7.94l-0.41 5.83zm14.71 3.37q-1.32 0-2.32-0.59q-0.99-0.6-1.56-1.83q-0.55-1.24-0.55-3.11q0-2.8 1.19-4.18q1.2-1.38 3.24-1.38q2.05 0 3.24 1.38q1.19 1.38 1.19 4.18q0 1.87-0.57 3.11q-0.55 1.23-1.54 1.83q-1 0.59-2.32 0.59zm2.6 6.9h-1.81l9.03-17.76h1.81zm-2.61-8.29q2.76 0 2.76-4.13q0-2.18-0.73-3.17q-0.73-0.99-2.03-0.99q-2.74 0-2.74 4.12q0 2.18 0.72 3.17q0.73 1 2.02 1zm12.41 8.51q-1.32 0-2.31-0.59q-0.99-0.6-1.55-1.84q-0.55-1.25-0.55-3.12q0-2.78 1.18-4.16q1.19-1.38 3.23-1.38q2.05 0 3.24 1.38q1.19 1.38 1.19 4.16q0 1.87-0.56 3.12q-0.56 1.24-1.55 1.84q-0.99 0.59-2.32 0.59zm0-1.41q2.76 0 2.76-4.11q0-2.19-0.73-3.17q-0.73-1-2.03-1q-1.28 0-2.01 0.99q-0.74 0.98-0.74 3.14q0 2.16 0.74 3.16q0.73 0.99 2.01 0.99z" />
		<path id="5% copy 3" fill="#ffffff" aria-label="5%"  d="m29 106.73q2.91 0.15 4.66 0.78q1.76 0.61 2.56 1.69q0.79 1.08 0.78 2.71q0 2.59-1.79 3.96q-1.78 1.36-5.28 1.36q-1.23 0-2.49-0.21q-1.26-0.2-2.38-0.56v-1.61q1.16 0.36 2.4 0.57q1.24 0.19 2.42 0.19q2.6 0 3.88-0.91q1.28-0.93 1.28-2.78q0-1.16-0.61-1.89q-0.6-0.75-2.04-1.17q-1.43-0.42-3.94-0.56l-2.63-0.14l0.65-8.92h9.77v1.6h-7.94l-0.41 5.83zm14.71 3.37q-1.32 0-2.32-0.59q-0.99-0.6-1.56-1.83q-0.55-1.24-0.55-3.11q0-2.8 1.19-4.18q1.2-1.38 3.24-1.38q2.05 0 3.24 1.38q1.19 1.38 1.19 4.18q0 1.87-0.57 3.11q-0.55 1.23-1.54 1.83q-1 0.59-2.32 0.59zm2.6 6.9h-1.81l9.03-17.76h1.81zm-2.61-8.29q2.76 0 2.76-4.13q0-2.18-0.73-3.17q-0.73-0.99-2.03-0.99q-2.74 0-2.74 4.12q0 2.18 0.72 3.17q0.73 1 2.02 1zm12.41 8.51q-1.32 0-2.31-0.59q-0.99-0.6-1.55-1.84q-0.55-1.25-0.55-3.12q0-2.78 1.18-4.16q1.19-1.38 3.23-1.38q2.05 0 3.24 1.38q1.19 1.38 1.19 4.16q0 1.87-0.56 3.12q-0.56 1.24-1.55 1.84q-0.99 0.59-2.32 0.59zm0-1.41q2.76 0 2.76-4.11q0-2.19-0.73-3.17q-0.73-1-2.03-1q-1.28 0-2.01 0.99q-0.74 0.98-0.74 3.14q0 2.16 0.74 3.16q0.73 0.99 2.01 0.99z" />
	</g>
	<g id="Layer">
	</g>
	<g id="Layer">
		<path id="25%" fill="#ffffff" aria-label="25%"  d="m260.73 304.31h8.86v1.69h-11.71v-1.09l5.77-6.57q1.52-1.74 2.13-2.92q0.62-1.19 0.62-2.34q0-1.73-1.04-2.55q-1.03-0.83-3.18-0.83q-2.44 0-4.52 0.76v-1.73q0.94-0.32 2.15-0.51q1.22-0.21 2.48-0.21q3.06 0 4.6 1.21q1.55 1.2 1.55 3.66q0 1.04-0.3 1.97q-0.3 0.94-0.99 1.97q-0.68 1.03-1.88 2.38zm14.6-8.58q2.91 0.15 4.66 0.78q1.76 0.61 2.55 1.69q0.8 1.08 0.78 2.71q0 2.59-1.78 3.96q-1.78 1.36-5.28 1.36q-1.23 0-2.49-0.21q-1.26-0.2-2.39-0.56v-1.61q1.17 0.36 2.4 0.56q1.25 0.2 2.43 0.2q2.6 0 3.87-0.92q1.29-0.92 1.29-2.77q0-1.16-0.61-1.89q-0.6-0.75-2.04-1.17q-1.43-0.42-3.94-0.56l-2.63-0.15l0.65-8.91h9.77v1.59h-7.95l-0.4 5.84zm14.71 3.37q-1.32 0-2.32-0.59q-0.99-0.6-1.56-1.84q-0.55-1.23-0.55-3.1q0-2.8 1.19-4.18q1.2-1.38 3.24-1.38q2.05 0 3.24 1.38q1.19 1.38 1.19 4.18q0 1.87-0.57 3.1q-0.55 1.24-1.55 1.84q-0.99 0.59-2.31 0.59zm2.6 6.9h-1.81l9.02-17.76h1.82zm-2.61-8.29q2.76 0 2.76-4.13q0-2.19-0.73-3.17q-0.73-1-2.03-1q-2.75 0-2.75 4.13q0 2.17 0.72 3.17q0.74 1 2.03 1zm12.41 8.5q-1.32 0-2.32-0.58q-0.98-0.6-1.54-1.84q-0.56-1.25-0.56-3.12q0-2.78 1.19-4.16q1.19-1.38 3.23-1.38q2.05 0 3.24 1.38q1.19 1.38 1.19 4.16q0 1.87-0.57 3.12q-0.55 1.24-1.54 1.84q-0.99 0.58-2.32 0.58zm0-1.4q2.76 0 2.76-4.12q0-2.18-0.73-3.16q-0.73-1-2.03-1q-1.28 0-2.02 0.98q-0.73 0.99-0.73 3.15q0 2.16 0.73 3.15q0.74 1 2.02 1z" />
		<path id="15%" fill="#ffffff" aria-label="15%"  d="m69.38 297.58l6.16-4.4h1.38v17.82h-2.05v-15.25l-5.49 3.89zm14.99 3.14q2.91 0.16 4.66 0.78q1.76 0.61 2.55 1.69q0.8 1.08 0.78 2.71q0 2.6-1.78 3.96q-1.78 1.36-5.28 1.36q-1.23 0-2.49-0.2q-1.26-0.21-2.39-0.57v-1.61q1.17 0.36 2.4 0.57q1.25 0.19 2.43 0.19q2.6 0 3.87-0.91q1.29-0.93 1.29-2.77q0-1.17-0.61-1.9q-0.6-0.74-2.04-1.16q-1.43-0.42-3.94-0.57l-2.63-0.14l0.65-8.92h9.77v1.6h-7.95l-0.4 5.83zm14.71 3.37q-1.32 0-2.32-0.59q-0.99-0.6-1.56-1.83q-0.55-1.24-0.55-3.11q0-2.8 1.19-4.18q1.2-1.38 3.24-1.38q2.05 0 3.24 1.38q1.19 1.38 1.19 4.18q0 1.87-0.57 3.11q-0.55 1.23-1.55 1.83q-0.99 0.59-2.31 0.59zm2.6 6.9h-1.81l9.02-17.76h1.82zm-2.61-8.29q2.76 0 2.76-4.13q0-2.18-0.73-3.17q-0.73-0.99-2.03-0.99q-2.75 0-2.75 4.13q0 2.17 0.72 3.16q0.74 1 2.03 1zm12.41 8.51q-1.32 0-2.32-0.59q-0.98-0.6-1.54-1.84q-0.56-1.24-0.56-3.12q0-2.78 1.19-4.16q1.19-1.38 3.23-1.38q2.05 0 3.24 1.38q1.19 1.38 1.19 4.16q0 1.88-0.57 3.12q-0.55 1.24-1.54 1.84q-0.99 0.59-2.32 0.59zm0-1.41q2.76 0 2.76-4.11q0-2.19-0.73-3.17q-0.73-1-2.03-1q-1.28 0-2.02 0.99q-0.73 0.98-0.73 3.14q0 2.16 0.73 3.16q0.74 0.99 2.02 0.99z" />
		<path id="10%" fill="#ffffff" aria-label="10%"  d="m0.38 188.58l6.16-4.4h1.38v17.82h-2.05v-15.25l-5.49 3.89zm18.47 13.64q-3.26 0-5.07-2.2q-1.8-2.19-1.8-6.91q0-4.73 1.78-6.91q1.8-2.2 5.09-2.2q3.29 0 5.08 2.2q1.8 2.18 1.8 6.91q0 4.72-1.81 6.91q-1.8 2.2-5.07 2.2zm0-1.74q1.54 0 2.59-0.68q1.07-0.69 1.65-2.31q0.59-1.62 0.59-4.34q0-2.76-0.59-4.39q-0.58-1.64-1.65-2.32q-1.05-0.7-2.59-0.7q-1.53 0-2.6 0.69q-1.06 0.68-1.65 2.3q-0.57 1.62-0.57 4.35q0 2.76 0.57 4.39q0.59 1.63 1.65 2.33q1.07 0.68 2.6 0.68zm14.4-5.39q-1.32 0-2.31-0.59q-1-0.6-1.56-1.83q-0.56-1.24-0.56-3.11q0-2.8 1.19-4.18q1.2-1.38 3.24-1.38q2.05 0 3.24 1.38q1.19 1.38 1.19 4.18q0 1.87-0.56 3.11q-0.56 1.23-1.55 1.83q-1 0.59-2.32 0.59zm2.61 6.9h-1.82l9.03-17.76h1.81zm-2.6-8.29q2.76 0 2.76-4.13q0-2.18-0.74-3.17q-0.73-0.99-2.02-0.99q-2.75 0-2.75 4.13q0 2.17 0.72 3.16q0.73 1 2.03 1zm12.4 8.51q-1.32 0-2.31-0.59q-0.99-0.6-1.55-1.84q-0.55-1.24-0.55-3.12q0-2.78 1.19-4.16q1.18-1.38 3.22-1.38q2.06 0 3.24 1.38q1.19 1.38 1.19 4.16q0 1.88-0.56 3.12q-0.55 1.24-1.55 1.84q-0.98 0.59-2.32 0.59zm0-1.41q2.76 0 2.76-4.11q0-2.19-0.73-3.17q-0.73-1-2.03-1q-1.28 0-2.01 0.99q-0.73 0.98-0.73 3.14q0 2.16 0.73 3.16q0.73 0.99 2.01 0.99z" />
	</g>
</svg>