<svg version="1.2" baseProfile="tiny-ps" xmlns="http://www.w3.org/2000/svg" viewBox="0 0 620 361" width="620" height="361">
	<title>image</title>
	<style>
		tspan { white-space:pre }
		.s0 { fill: #5399d9 } 
		.s1 { fill: #ffffff } 
		.s2 { fill: #f38645 } 
		.s3 { fill: #a8a8a8 } 
		.s4 { fill: #ffc61a } 
		.s5 { fill: #4f4747 } 
		.s6 { fill: #002060 } 
		.s7 { fill: #c00000 } 
		.s8 { fill: #548235 } 
		.s9 { fill: #69a3db } 
	</style>
	<path id="Layer" class="s0" d="m455 27c0-1.66 1.34-3 3-3h20c1.66 0 3 1.34 3 3v20c0 1.66-1.34 3-3 3h-20c-1.66 0-3-1.34-3-3v-20z" />
	<path id="Layer" fill-rule="evenodd" class="s1" d="m510.78 33.56h-3.71v-1.76h9.5v1.76h-3.71v9.44h-2.08v-9.44zm14.32 5.22c0 0.14-0.01 0.34-0.03 0.59h-6.7c0.12 0.63 0.42 1.13 0.91 1.5c0.5 0.36 1.12 0.54 1.86 0.54c0.94 0 1.71-0.31 2.32-0.93l1.07 1.23c-0.38 0.46-0.87 0.81-1.46 1.04c-0.59 0.23-1.25 0.35-1.98 0.35c-0.94 0-1.76-0.19-2.48-0.56c-0.71-0.37-1.27-0.89-1.66-1.55c-0.38-0.67-0.58-1.43-0.58-2.27c0-0.83 0.19-1.58 0.56-2.24c0.38-0.67 0.91-1.19 1.58-1.57c0.67-0.37 1.43-0.56 2.27-0.56c0.83 0 1.57 0.19 2.22 0.56c0.66 0.36 1.17 0.88 1.54 1.55c0.37 0.66 0.56 1.43 0.56 2.3zm-4.32-2.82c-0.64 0-1.18 0.19-1.63 0.58c-0.44 0.37-0.7 0.87-0.8 1.5h4.85c-0.09-0.62-0.35-1.12-0.78-1.5c-0.44-0.38-0.98-0.58-1.63-0.58zm9.27-1.6c1.26 0 2.22 0.3 2.88 0.91c0.67 0.6 1.01 1.5 1.01 2.72v5.01h-1.89v-1.04c-0.25 0.37-0.6 0.66-1.06 0.86c-0.45 0.19-0.99 0.29-1.63 0.29c-0.64 0-1.2-0.11-1.68-0.32c-0.48-0.22-0.85-0.53-1.12-0.91c-0.26-0.39-0.38-0.84-0.38-1.33c0-0.77 0.28-1.38 0.85-1.84c0.58-0.47 1.48-0.7 2.7-0.7h2.21v-0.13c0-0.6-0.18-1.06-0.54-1.38c-0.35-0.32-0.88-0.48-1.58-0.48c-0.48 0-0.95 0.07-1.42 0.22c-0.46 0.15-0.85 0.36-1.17 0.62l-0.78-1.46c0.45-0.34 0.99-0.6 1.62-0.78c0.63-0.18 1.3-0.27 2-0.27zm-0.27 7.3c0.5 0 0.94-0.11 1.33-0.34c0.39-0.23 0.67-0.57 0.83-0.99v-0.99h-2.06c-1.15 0-1.73 0.38-1.73 1.14c0 0.36 0.14 0.65 0.43 0.86c0.29 0.21 0.69 0.32 1.2 0.32zm17.51-7.3c1.08 0 1.93 0.31 2.56 0.94c0.63 0.62 0.94 1.55 0.94 2.8v4.9h-2v-4.64c0-0.75-0.17-1.31-0.5-1.68c-0.33-0.38-0.81-0.58-1.42-0.58c-0.67 0-1.21 0.22-1.62 0.67c-0.41 0.44-0.61 1.07-0.61 1.89v4.34h-2v-4.64c0-0.75-0.17-1.31-0.5-1.68c-0.33-0.38-0.81-0.58-1.42-0.58c-0.68 0-1.23 0.22-1.63 0.66c-0.39 0.44-0.59 1.07-0.59 1.9v4.34h-2v-8.54h1.9v1.09c0.32-0.38 0.72-0.68 1.2-0.88c0.48-0.2 1.01-0.3 1.6-0.3c0.64 0 1.21 0.12 1.7 0.37c0.5 0.23 0.9 0.59 1.18 1.06c0.35-0.45 0.81-0.79 1.36-1.04c0.55-0.26 1.17-0.38 1.84-0.38z" />
	<path id="Layer" class="s2" d="m455 69c0-1.66 1.34-3 3-3h20c1.66 0 3 1.34 3 3v20c0 1.66-1.34 3-3 3h-20c-1.66 0-3-1.34-3-3v-20z" />
	<path id="Layer" fill-rule="evenodd" class="s1" d="m508.5 72.8h4.9c1.2 0 2.26 0.23 3.18 0.7c0.93 0.46 1.65 1.11 2.16 1.97c0.51 0.84 0.77 1.82 0.77 2.93c0 1.11-0.26 2.09-0.77 2.94c-0.51 0.84-1.23 1.5-2.16 1.97c-0.93 0.46-1.99 0.69-3.18 0.69h-4.9v-11.2zm4.8 9.44c0.82 0 1.54-0.15 2.16-0.46c0.63-0.32 1.11-0.77 1.44-1.34c0.34-0.59 0.51-1.26 0.51-2.03c0-0.77-0.17-1.44-0.51-2.02c-0.33-0.59-0.81-1.03-1.44-1.34c-0.62-0.32-1.34-0.48-2.16-0.48h-2.72v7.68h2.72zm16.26-2.46c0 0.14-0.01 0.34-0.03 0.59h-6.7c0.12 0.63 0.42 1.13 0.91 1.5c0.5 0.36 1.12 0.54 1.86 0.54c0.94 0 1.71-0.31 2.32-0.93l1.07 1.23c-0.38 0.46-0.87 0.81-1.46 1.04c-0.59 0.23-1.25 0.35-1.98 0.35c-0.94 0-1.77-0.19-2.48-0.56c-0.72-0.37-1.27-0.89-1.66-1.55c-0.38-0.67-0.58-1.43-0.58-2.27c0-0.83 0.19-1.58 0.56-2.24c0.38-0.67 0.91-1.19 1.58-1.57c0.67-0.37 1.43-0.56 2.27-0.56c0.83 0 1.57 0.19 2.22 0.56c0.66 0.36 1.17 0.88 1.54 1.55c0.37 0.66 0.56 1.43 0.56 2.3zm-4.32-2.82c-0.64 0-1.18 0.19-1.63 0.58c-0.44 0.37-0.7 0.87-0.8 1.5h4.85c-0.09-0.62-0.35-1.12-0.78-1.5c-0.44-0.38-0.98-0.58-1.63-0.58zm14.08-1.5l-3.66 8.54h-2.06l-3.66-8.54h2.08l2.66 6.34l2.74-6.34h1.92zm9.05 4.32c0 0.14-0.01 0.34-0.03 0.59h-6.7c0.12 0.63 0.42 1.13 0.91 1.5c0.5 0.36 1.12 0.54 1.86 0.54c0.94 0 1.71-0.31 2.32-0.93l1.07 1.23c-0.38 0.46-0.87 0.81-1.46 1.04c-0.59 0.23-1.25 0.35-1.98 0.35c-0.94 0-1.76-0.19-2.48-0.56c-0.71-0.37-1.27-0.89-1.66-1.55c-0.38-0.67-0.58-1.43-0.58-2.27c0-0.83 0.19-1.58 0.56-2.24c0.38-0.67 0.91-1.19 1.58-1.57c0.67-0.37 1.43-0.56 2.27-0.56c0.83 0 1.57 0.19 2.22 0.56c0.66 0.36 1.17 0.88 1.54 1.55c0.37 0.66 0.56 1.43 0.56 2.3zm-4.32-2.82c-0.64 0-1.18 0.19-1.63 0.58c-0.44 0.37-0.7 0.87-0.8 1.5h4.85c-0.09-0.62-0.35-1.12-0.78-1.5c-0.44-0.38-0.98-0.58-1.63-0.58zm6.24-4.83h2v11.87h-2v-11.87zm8.46 11.98c-0.86 0-1.64-0.19-2.34-0.56c-0.69-0.37-1.24-0.89-1.63-1.55c-0.38-0.67-0.58-1.43-0.58-2.27c0-0.84 0.19-1.59 0.58-2.26c0.39-0.66 0.94-1.18 1.63-1.55c0.69-0.37 1.47-0.56 2.34-0.56c0.88 0 1.66 0.19 2.35 0.56c0.69 0.37 1.23 0.89 1.62 1.55c0.39 0.66 0.59 1.41 0.59 2.26c0 0.84-0.2 1.6-0.59 2.27c-0.38 0.66-0.92 1.18-1.62 1.55c-0.69 0.37-1.48 0.56-2.35 0.56zm0-1.71c0.74 0 1.34-0.25 1.82-0.74c0.48-0.49 0.72-1.14 0.72-1.94c0-0.8-0.24-1.45-0.72-1.94c-0.48-0.49-1.09-0.74-1.82-0.74c-0.74 0-1.34 0.25-1.82 0.74c-0.47 0.49-0.7 1.14-0.7 1.94c0 0.8 0.24 1.45 0.7 1.94c0.48 0.49 1.09 0.74 1.82 0.74zm11.21-7.04c0.83 0 1.57 0.18 2.22 0.54c0.66 0.36 1.18 0.87 1.55 1.54c0.37 0.66 0.56 1.42 0.56 2.29c0 0.86-0.19 1.63-0.56 2.3c-0.37 0.66-0.89 1.17-1.55 1.54c-0.65 0.36-1.39 0.54-2.22 0.54c-1.15 0-2.06-0.38-2.74-1.15v4.14h-2v-11.65h1.9v1.12c0.33-0.41 0.74-0.71 1.22-0.91c0.49-0.2 1.03-0.3 1.62-0.3zm-0.22 7.04c0.74 0 1.34-0.25 1.81-0.74c0.48-0.49 0.72-1.14 0.72-1.94c0-0.8-0.24-1.45-0.72-1.94c-0.47-0.49-1.07-0.74-1.81-0.74c-0.48 0-0.91 0.11-1.3 0.34c-0.38 0.21-0.69 0.52-0.91 0.93c-0.22 0.41-0.34 0.87-0.34 1.41c0 0.53 0.11 1 0.34 1.41c0.22 0.41 0.53 0.72 0.91 0.94c0.38 0.21 0.82 0.32 1.3 0.32zm17.24-7.04c1.08 0 1.93 0.31 2.56 0.94c0.63 0.62 0.94 1.55 0.94 2.8v4.9h-2v-4.64c0-0.75-0.17-1.31-0.5-1.68c-0.33-0.38-0.81-0.58-1.42-0.58c-0.67 0-1.21 0.22-1.62 0.67c-0.41 0.44-0.61 1.07-0.61 1.89v4.34h-2v-4.64c0-0.75-0.17-1.31-0.5-1.68c-0.33-0.38-0.81-0.58-1.42-0.58c-0.68 0-1.23 0.22-1.63 0.66c-0.39 0.44-0.59 1.07-0.59 1.9v4.34h-2v-8.54h1.9v1.09c0.32-0.38 0.72-0.68 1.2-0.88c0.48-0.2 1.01-0.3 1.6-0.3c0.64 0 1.2 0.12 1.7 0.37c0.5 0.23 0.9 0.59 1.18 1.06c0.35-0.45 0.8-0.79 1.36-1.04c0.55-0.26 1.17-0.38 1.84-0.38zm14.17 4.42c0 0.14-0.01 0.34-0.03 0.59h-6.7c0.12 0.63 0.42 1.13 0.91 1.5c0.5 0.36 1.12 0.54 1.86 0.54c0.94 0 1.71-0.31 2.32-0.93l1.07 1.23c-0.38 0.46-0.87 0.81-1.46 1.04c-0.59 0.23-1.25 0.35-1.98 0.35c-0.94 0-1.77-0.19-2.48-0.56c-0.71-0.37-1.27-0.89-1.66-1.55c-0.38-0.67-0.58-1.43-0.58-2.27c0-0.83 0.19-1.58 0.56-2.24c0.38-0.67 0.91-1.19 1.58-1.57c0.67-0.37 1.43-0.56 2.27-0.56c0.83 0 1.57 0.19 2.22 0.56c0.66 0.36 1.17 0.88 1.54 1.55c0.37 0.66 0.56 1.43 0.56 2.3zm-4.32-2.82c-0.64 0-1.18 0.19-1.63 0.58c-0.44 0.37-0.7 0.87-0.8 1.5h4.85c-0.09-0.62-0.35-1.12-0.78-1.5c-0.44-0.38-0.98-0.58-1.63-0.58zm11.09-1.6c1.08 0 1.94 0.31 2.59 0.94c0.65 0.63 0.98 1.56 0.98 2.8v4.9h-2v-4.64c0-0.75-0.18-1.31-0.53-1.68c-0.35-0.38-0.85-0.58-1.5-0.58c-0.74 0-1.32 0.22-1.74 0.67c-0.43 0.44-0.64 1.07-0.64 1.9v4.32h-2v-8.54h1.9v1.1c0.33-0.39 0.75-0.69 1.25-0.9c0.5-0.2 1.07-0.3 1.7-0.3zm11.24 8.18c-0.24 0.19-0.52 0.34-0.86 0.43c-0.33 0.1-0.68 0.14-1.06 0.14c-0.94 0-1.66-0.25-2.18-0.74c-0.51-0.49-0.77-1.21-0.77-2.14v-4.11h-1.41v-1.6h1.41v-1.95h2v1.95h2.29v1.6h-2.29v4.06c0 0.42 0.1 0.74 0.3 0.96c0.2 0.21 0.5 0.32 0.88 0.32c0.45 0 0.82-0.12 1.12-0.35l0.56 1.42z" />
	<path id="Layer" class="s3" d="m455 110c0-1.66 1.34-3 3-3h20c1.66 0 3 1.34 3 3v20c0 1.66-1.34 3-3 3h-20c-1.66 0-3-1.34-3-3v-20z" />
	<path id="Layer" fill-rule="evenodd" class="s1" d="m516.79 125l-0.02-7.42l-3.68 6.14h-0.93l-3.68-6.05v7.33h-1.98v-11.2h1.71l4.45 7.42l4.37-7.42h1.71l0.02 11.2h-1.97zm8.06-8.64c1.26 0 2.22 0.3 2.88 0.91c0.67 0.6 1.01 1.5 1.01 2.72v5.01h-1.89v-1.04c-0.25 0.37-0.6 0.66-1.06 0.86c-0.45 0.19-0.99 0.29-1.63 0.29c-0.64 0-1.2-0.11-1.68-0.32c-0.48-0.22-0.85-0.53-1.12-0.91c-0.26-0.39-0.38-0.84-0.38-1.33c0-0.77 0.28-1.38 0.85-1.84c0.58-0.47 1.48-0.7 2.7-0.7h2.21v-0.13c0-0.6-0.18-1.06-0.54-1.38c-0.35-0.32-0.88-0.48-1.58-0.48c-0.48 0-0.95 0.08-1.42 0.22c-0.46 0.15-0.85 0.36-1.17 0.62l-0.78-1.46c0.45-0.34 0.99-0.6 1.62-0.78c0.63-0.18 1.3-0.27 2-0.27zm-0.27 7.3c0.5 0 0.94-0.11 1.33-0.34c0.39-0.23 0.67-0.56 0.83-0.99v-0.99h-2.06c-1.15 0-1.73 0.38-1.73 1.14c0 0.36 0.14 0.65 0.43 0.86c0.29 0.21 0.69 0.32 1.2 0.32zm8.63-5.95c0.58-0.9 1.59-1.34 3.04-1.34v1.9c-0.17-0.03-0.32-0.05-0.46-0.05c-0.78 0-1.39 0.23-1.82 0.69c-0.44 0.45-0.66 1.1-0.66 1.95v4.14h-2v-8.54h1.9v1.25zm8.23 3.63l-1.49 1.41v2.26h-2v-11.87h2v7.17l4.14-3.84h2.4l-3.57 3.58l3.9 4.96h-2.43l-2.96-3.66zm14.36-0.56c0 0.14-0.01 0.34-0.03 0.59h-6.7c0.12 0.63 0.42 1.13 0.91 1.5c0.5 0.36 1.12 0.54 1.86 0.54c0.94 0 1.71-0.31 2.32-0.93l1.07 1.23c-0.38 0.46-0.87 0.81-1.46 1.04c-0.59 0.23-1.25 0.35-1.98 0.35c-0.94 0-1.76-0.19-2.48-0.56c-0.72-0.37-1.27-0.89-1.66-1.55c-0.38-0.67-0.58-1.43-0.58-2.27c0-0.83 0.19-1.58 0.56-2.24c0.38-0.67 0.91-1.19 1.58-1.57c0.67-0.37 1.43-0.56 2.27-0.56c0.83 0 1.57 0.19 2.22 0.56c0.66 0.36 1.17 0.88 1.54 1.55c0.37 0.66 0.56 1.43 0.56 2.3zm-4.32-2.82c-0.64 0-1.18 0.19-1.63 0.58c-0.44 0.37-0.7 0.88-0.8 1.5h4.85c-0.09-0.62-0.35-1.12-0.78-1.5c-0.44-0.38-0.98-0.58-1.63-0.58zm11.38 6.58c-0.23 0.19-0.52 0.34-0.86 0.43c-0.33 0.1-0.68 0.14-1.06 0.14c-0.94 0-1.66-0.24-2.18-0.74c-0.51-0.49-0.77-1.2-0.77-2.14v-4.11h-1.41v-1.6h1.41v-1.95h2v1.95h2.29v1.6h-2.29v4.06c0 0.42 0.1 0.74 0.3 0.96c0.2 0.21 0.5 0.32 0.88 0.32c0.45 0 0.82-0.12 1.12-0.35l0.56 1.42zm1.65-8.08h2v8.54h-2v-8.54zm1.01-1.41c-0.36 0-0.67-0.11-0.91-0.34c-0.25-0.23-0.37-0.52-0.37-0.86c0-0.34 0.12-0.62 0.37-0.85c0.25-0.23 0.55-0.35 0.91-0.35c0.36 0 0.67 0.11 0.91 0.34c0.25 0.21 0.37 0.48 0.37 0.82c0 0.35-0.12 0.65-0.37 0.9c-0.24 0.23-0.54 0.35-0.91 0.35zm8.46 1.31c1.08 0 1.94 0.31 2.59 0.94c0.65 0.63 0.98 1.56 0.98 2.8v4.9h-2v-4.64c0-0.75-0.18-1.31-0.53-1.68c-0.35-0.38-0.85-0.58-1.5-0.58c-0.74 0-1.32 0.22-1.74 0.67c-0.43 0.44-0.64 1.07-0.64 1.9v4.32h-2v-8.54h1.9v1.1c0.33-0.39 0.75-0.69 1.25-0.9c0.5-0.2 1.07-0.3 1.7-0.3zm14.66 0.1v7.25c0 3.01-1.54 4.51-4.61 4.51c-0.82 0-1.6-0.11-2.34-0.32c-0.74-0.2-1.34-0.5-1.82-0.9l0.9-1.5c0.37 0.31 0.84 0.56 1.41 0.74c0.58 0.19 1.16 0.29 1.74 0.29c0.94 0 1.63-0.21 2.06-0.64c0.44-0.43 0.66-1.08 0.66-1.95v-0.45c-0.34 0.37-0.76 0.66-1.25 0.85c-0.49 0.19-1.03 0.29-1.62 0.29c-0.81 0-1.55-0.17-2.21-0.51c-0.65-0.35-1.17-0.84-1.55-1.47c-0.37-0.63-0.56-1.35-0.56-2.16c0-0.81 0.19-1.52 0.56-2.14c0.38-0.63 0.9-1.12 1.55-1.46c0.66-0.34 1.4-0.51 2.21-0.51c0.62 0 1.18 0.1 1.68 0.3c0.51 0.2 0.94 0.51 1.28 0.93v-1.14h1.9zm-4.56 6.46c0.76 0 1.38-0.22 1.86-0.67c0.49-0.46 0.74-1.05 0.74-1.78c0-0.71-0.25-1.3-0.74-1.74c-0.48-0.45-1.1-0.67-1.86-0.67c-0.77 0-1.4 0.22-1.89 0.67c-0.48 0.45-0.72 1.03-0.72 1.74c0 0.73 0.24 1.32 0.72 1.78c0.49 0.45 1.12 0.67 1.89 0.67z" />
	<path id="Layer" class="s4" d="m455 150c0-1.66 1.34-3 3-3h20c1.66 0 3 1.34 3 3v20c0 1.66-1.34 3-3 3h-20c-1.66 0-3-1.34-3-3v-20z" />
	<path id="Layer" fill-rule="evenodd" class="s1" d="m515.77 163.41h-5.6l-1.1 2.59h-2.14l5.04-11.2h2.05l5.06 11.2h-2.18l-1.12-2.59zm-0.69-1.63l-2.11-4.9l-2.1 4.9h4.21zm5.22-4.32h2v8.54h-2v-8.54zm1.01-1.41c-0.36 0-0.67-0.11-0.91-0.34c-0.25-0.23-0.37-0.52-0.37-0.86c0-0.34 0.12-0.62 0.37-0.85c0.25-0.24 0.55-0.35 0.91-0.35c0.36 0 0.67 0.11 0.91 0.34c0.25 0.21 0.37 0.48 0.37 0.82c0 0.35-0.12 0.65-0.37 0.9c-0.23 0.24-0.54 0.35-0.91 0.35zm5.52 2.66c0.58-0.9 1.59-1.34 3.04-1.34v1.9c-0.17-0.03-0.33-0.05-0.46-0.05c-0.78 0-1.39 0.23-1.82 0.69c-0.44 0.45-0.66 1.1-0.66 1.95v4.14h-2v-8.54h1.9v1.25zm13.03-4.58v11.87h-1.92v-1.1c-0.33 0.41-0.74 0.71-1.23 0.91c-0.48 0.2-1.01 0.3-1.6 0.3c-0.82 0-1.56-0.18-2.22-0.54c-0.65-0.36-1.16-0.88-1.54-1.54c-0.37-0.67-0.56-1.44-0.56-2.3c0-0.86 0.19-1.63 0.56-2.29c0.37-0.66 0.88-1.17 1.54-1.54c0.66-0.36 1.4-0.54 2.22-0.54c0.56 0 1.08 0.1 1.55 0.29c0.47 0.19 0.87 0.48 1.2 0.86v-4.38h2zm-4.51 10.27c0.48 0 0.91-0.11 1.3-0.32c0.38-0.22 0.69-0.54 0.91-0.94c0.22-0.41 0.34-0.88 0.34-1.41c0-0.53-0.11-1-0.34-1.41c-0.22-0.41-0.53-0.72-0.91-0.93c-0.38-0.22-0.82-0.34-1.3-0.34c-0.48 0-0.91 0.11-1.3 0.34c-0.38 0.21-0.69 0.52-0.91 0.93c-0.22 0.41-0.34 0.88-0.34 1.41c0 0.53 0.11 1 0.34 1.41c0.22 0.41 0.53 0.72 0.91 0.94c0.38 0.21 0.82 0.32 1.3 0.32zm9.03-5.7c0.58-0.9 1.59-1.34 3.04-1.34v1.9c-0.17-0.03-0.33-0.05-0.46-0.05c-0.78 0-1.39 0.23-1.82 0.69c-0.44 0.45-0.66 1.1-0.66 1.95v4.14h-2v-8.54h1.9v1.25zm8.5 7.41c-0.86 0-1.64-0.19-2.34-0.56c-0.69-0.37-1.24-0.89-1.63-1.55c-0.38-0.67-0.58-1.43-0.58-2.27c0-0.84 0.19-1.59 0.58-2.26c0.39-0.66 0.94-1.18 1.63-1.55c0.69-0.37 1.47-0.56 2.34-0.56c0.87 0 1.66 0.19 2.35 0.56c0.69 0.37 1.23 0.89 1.62 1.55c0.39 0.66 0.59 1.41 0.59 2.26c0 0.84-0.2 1.6-0.59 2.27c-0.38 0.66-0.92 1.18-1.62 1.55c-0.69 0.37-1.48 0.56-2.35 0.56zm0-1.71c0.74 0 1.34-0.25 1.82-0.74c0.48-0.49 0.72-1.14 0.72-1.94c0-0.8-0.24-1.45-0.72-1.94c-0.48-0.49-1.09-0.74-1.82-0.74c-0.74 0-1.34 0.24-1.82 0.74c-0.47 0.49-0.7 1.14-0.7 1.94c0 0.8 0.23 1.44 0.7 1.94c0.48 0.49 1.09 0.74 1.82 0.74zm11.21-7.04c0.83 0 1.57 0.18 2.22 0.54c0.66 0.36 1.18 0.88 1.55 1.54c0.37 0.66 0.56 1.42 0.56 2.29c0 0.86-0.19 1.63-0.56 2.3c-0.37 0.66-0.89 1.17-1.55 1.54c-0.65 0.36-1.39 0.54-2.22 0.54c-1.15 0-2.06-0.38-2.74-1.15v4.14h-2v-11.65h1.9v1.12c0.33-0.41 0.74-0.71 1.22-0.91c0.49-0.2 1.03-0.3 1.62-0.3zm-0.22 7.04c0.74 0 1.34-0.25 1.81-0.74c0.48-0.49 0.72-1.14 0.72-1.94c0-0.8-0.24-1.45-0.72-1.94c-0.47-0.49-1.07-0.74-1.81-0.74c-0.48 0-0.91 0.11-1.3 0.34c-0.38 0.21-0.69 0.52-0.91 0.93c-0.22 0.41-0.34 0.88-0.34 1.41c0 0.53 0.11 1 0.34 1.41c0.22 0.41 0.53 0.72 0.91 0.94c0.38 0.21 0.82 0.32 1.3 0.32z" />
	<path id="Layer" class="s5" d="m455 191c0-1.66 1.34-3 3-3h20c1.66 0 3 1.34 3 3v20c0 1.66-1.34 3-3 3h-20c-1.66 0-3-1.34-3-3v-20z" />
	<path id="Layer" fill-rule="evenodd" class="s1" d="m513.11 195.8c0.97 0 1.81 0.16 2.53 0.48c0.73 0.32 1.28 0.78 1.66 1.38c0.38 0.6 0.58 1.31 0.58 2.13c0 0.81-0.19 1.52-0.58 2.13c-0.38 0.6-0.94 1.06-1.66 1.38c-0.72 0.32-1.56 0.48-2.53 0.48h-2.53v3.23h-2.08v-11.2h4.61zm-0.1 6.21c0.91 0 1.6-0.19 2.06-0.58c0.47-0.38 0.7-0.93 0.7-1.65c0-0.72-0.24-1.26-0.7-1.65c-0.47-0.38-1.16-0.58-2.06-0.58h-2.43v4.45h2.43zm8.58-2.3c0.58-0.9 1.59-1.34 3.04-1.34v1.9c-0.17-0.03-0.32-0.05-0.46-0.05c-0.78 0-1.39 0.23-1.82 0.69c-0.44 0.45-0.66 1.1-0.66 1.95v4.14h-2v-8.54h1.9v1.25zm4.74-1.25h2v8.54h-2v-8.54zm1.01-1.41c-0.36 0-0.67-0.11-0.91-0.34c-0.25-0.23-0.37-0.52-0.37-0.86c0-0.34 0.12-0.62 0.37-0.85c0.25-0.24 0.55-0.35 0.91-0.35c0.36 0 0.67 0.11 0.91 0.34c0.25 0.21 0.37 0.48 0.37 0.82c0 0.35-0.12 0.65-0.37 0.9c-0.24 0.24-0.54 0.35-0.91 0.35zm11.62 1.41l-3.66 8.54h-2.06l-3.66-8.54h2.08l2.66 6.34l2.74-6.34h1.92zm4.25-0.1c1.26 0 2.22 0.3 2.88 0.91c0.67 0.6 1.01 1.5 1.01 2.72v5.01h-1.89v-1.04c-0.25 0.37-0.6 0.66-1.06 0.86c-0.45 0.19-0.99 0.29-1.63 0.29c-0.64 0-1.2-0.11-1.68-0.32c-0.48-0.22-0.85-0.53-1.12-0.91c-0.26-0.39-0.38-0.84-0.38-1.33c0-0.77 0.28-1.38 0.85-1.84c0.58-0.47 1.48-0.7 2.7-0.7h2.21v-0.13c0-0.6-0.18-1.06-0.54-1.38c-0.35-0.32-0.88-0.48-1.58-0.48c-0.48 0-0.96 0.07-1.42 0.22c-0.46 0.15-0.85 0.36-1.17 0.62l-0.78-1.46c0.45-0.34 0.99-0.6 1.62-0.78c0.63-0.18 1.3-0.27 2-0.27zm-0.27 7.3c0.5 0 0.94-0.11 1.33-0.34c0.4-0.23 0.67-0.56 0.83-0.99v-0.99h-2.06c-1.15 0-1.73 0.38-1.73 1.14c0 0.36 0.14 0.65 0.43 0.86c0.29 0.21 0.69 0.32 1.2 0.32zm11.86 0.88c-0.24 0.19-0.52 0.34-0.86 0.43c-0.33 0.1-0.68 0.14-1.06 0.14c-0.94 0-1.66-0.25-2.18-0.74c-0.51-0.49-0.77-1.21-0.77-2.14v-4.11h-1.41v-1.6h1.41v-1.95h2v1.95h2.29v1.6h-2.29v4.06c0 0.42 0.1 0.74 0.3 0.96c0.2 0.21 0.5 0.32 0.88 0.32c0.45 0 0.82-0.12 1.12-0.35l0.56 1.42zm9.4-3.76c0 0.14-0.01 0.34-0.03 0.59h-6.7c0.12 0.63 0.42 1.13 0.91 1.5c0.5 0.36 1.12 0.54 1.86 0.54c0.94 0 1.71-0.31 2.32-0.93l1.07 1.23c-0.38 0.46-0.87 0.81-1.46 1.04c-0.59 0.24-1.25 0.35-1.98 0.35c-0.94 0-1.77-0.19-2.48-0.56c-0.72-0.37-1.27-0.89-1.66-1.55c-0.38-0.67-0.58-1.43-0.58-2.27c0-0.83 0.19-1.58 0.56-2.24c0.38-0.67 0.91-1.19 1.58-1.57c0.67-0.37 1.43-0.56 2.27-0.56c0.83 0 1.57 0.19 2.22 0.56c0.66 0.36 1.17 0.88 1.54 1.55c0.37 0.66 0.56 1.43 0.56 2.3zm-4.32-2.82c-0.64 0-1.18 0.19-1.63 0.58c-0.44 0.37-0.7 0.88-0.8 1.5h4.85c-0.09-0.62-0.35-1.12-0.78-1.5c-0.44-0.38-0.98-0.58-1.63-0.58z" />
	<path id="Layer" class="s6" d="m455 232c0-1.66 1.34-3 3-3h20c1.66 0 3 1.34 3 3v20c0 1.66-1.34 3-3 3h-20c-1.66 0-3-1.34-3-3v-20z" />
	<path id="Layer" fill-rule="evenodd" class="s1" d="m513.11 236.8c0.97 0 1.81 0.16 2.53 0.48c0.73 0.32 1.28 0.78 1.66 1.38c0.38 0.6 0.58 1.31 0.58 2.13c0 0.81-0.19 1.52-0.58 2.13c-0.38 0.6-0.94 1.06-1.66 1.38c-0.72 0.32-1.56 0.48-2.53 0.48h-2.53v3.23h-2.08v-11.2h4.61zm-0.1 6.21c0.91 0 1.6-0.19 2.06-0.58c0.47-0.38 0.7-0.93 0.7-1.65c0-0.72-0.24-1.26-0.7-1.65c-0.47-0.38-1.16-0.58-2.06-0.58h-2.43v4.45h2.43zm8.58-2.3c0.58-0.9 1.59-1.34 3.04-1.34v1.9c-0.17-0.03-0.32-0.05-0.46-0.05c-0.78 0-1.39 0.23-1.82 0.69c-0.44 0.45-0.66 1.1-0.66 1.95v4.14h-2v-8.54h1.9v1.25zm12.69 3.07c0 0.14-0.01 0.34-0.03 0.59h-6.7c0.12 0.63 0.42 1.13 0.91 1.5c0.5 0.36 1.12 0.54 1.86 0.54c0.94 0 1.71-0.31 2.32-0.93l1.07 1.23c-0.38 0.46-0.87 0.81-1.46 1.04c-0.59 0.24-1.25 0.35-1.98 0.35c-0.94 0-1.77-0.19-2.48-0.56c-0.71-0.37-1.27-0.89-1.66-1.55c-0.38-0.67-0.58-1.43-0.58-2.27c0-0.83 0.19-1.58 0.56-2.24c0.38-0.67 0.91-1.19 1.58-1.57c0.67-0.37 1.43-0.56 2.27-0.56c0.83 0 1.57 0.19 2.22 0.56c0.66 0.36 1.17 0.88 1.54 1.55c0.37 0.66 0.56 1.43 0.56 2.3zm-4.32-2.82c-0.64 0-1.18 0.19-1.63 0.58c-0.44 0.37-0.7 0.88-0.8 1.5h4.85c-0.09-0.62-0.35-1.12-0.78-1.5c-0.44-0.38-0.98-0.58-1.63-0.58zm5.97 1.76h4.4v1.66h-4.4v-1.66zm10.02 5.44c-0.86 0-1.7-0.12-2.51-0.37c-0.8-0.25-1.43-0.57-1.9-0.98l0.72-1.62c0.46 0.36 1.02 0.66 1.68 0.9c0.67 0.22 1.34 0.34 2.02 0.34c0.83 0 1.45-0.13 1.86-0.4c0.42-0.27 0.62-0.62 0.62-1.06c0-0.32-0.12-0.58-0.35-0.78c-0.22-0.21-0.51-0.38-0.86-0.5c-0.35-0.12-0.83-0.25-1.44-0.4c-0.85-0.2-1.55-0.41-2.08-0.61c-0.52-0.2-0.98-0.52-1.36-0.94c-0.37-0.44-0.56-1.02-0.56-1.76c0-0.62 0.16-1.18 0.5-1.68c0.34-0.51 0.85-0.92 1.52-1.22c0.68-0.3 1.51-0.45 2.5-0.45c0.68 0 1.35 0.09 2.02 0.26c0.66 0.17 1.23 0.42 1.71 0.74l-0.66 1.62c-0.49-0.29-1-0.51-1.54-0.66c-0.53-0.15-1.05-0.22-1.55-0.22c-0.82 0-1.43 0.14-1.84 0.42c-0.39 0.28-0.59 0.65-0.59 1.1c0 0.32 0.11 0.58 0.34 0.78c0.23 0.2 0.53 0.36 0.88 0.48c0.35 0.12 0.83 0.25 1.44 0.4c0.83 0.19 1.51 0.4 2.05 0.61c0.53 0.2 0.99 0.52 1.36 0.94c0.38 0.43 0.58 1 0.58 1.73c0 0.62-0.17 1.18-0.51 1.68c-0.33 0.5-0.84 0.9-1.52 1.2c-0.68 0.3-1.51 0.45-2.5 0.45zm9.66-8.8c1.26 0 2.22 0.3 2.88 0.91c0.67 0.6 1.01 1.5 1.01 2.72v5.01h-1.89v-1.04c-0.25 0.37-0.6 0.66-1.06 0.86c-0.45 0.19-0.99 0.29-1.63 0.29c-0.64 0-1.2-0.11-1.68-0.32c-0.48-0.22-0.85-0.53-1.12-0.91c-0.26-0.39-0.38-0.84-0.38-1.33c0-0.77 0.28-1.38 0.85-1.84c0.58-0.47 1.48-0.7 2.7-0.7h2.21v-0.13c0-0.6-0.18-1.06-0.54-1.38c-0.35-0.32-0.88-0.48-1.58-0.48c-0.48 0-0.95 0.07-1.42 0.22c-0.46 0.15-0.85 0.36-1.17 0.62l-0.78-1.46c0.45-0.34 0.99-0.6 1.62-0.78c0.63-0.18 1.3-0.27 2-0.27zm-0.27 7.3c0.5 0 0.94-0.11 1.33-0.34c0.39-0.23 0.67-0.56 0.83-0.99v-0.99h-2.06c-1.15 0-1.73 0.38-1.73 1.14c0 0.36 0.14 0.65 0.43 0.86c0.29 0.21 0.69 0.32 1.2 0.32zm6.73-10.53h2v11.87h-2v-11.87zm12.66 7.65c0 0.14-0.01 0.34-0.03 0.59h-6.7c0.12 0.63 0.42 1.13 0.91 1.5c0.5 0.36 1.12 0.54 1.86 0.54c0.94 0 1.71-0.31 2.32-0.93l1.07 1.23c-0.38 0.46-0.87 0.81-1.46 1.04c-0.59 0.24-1.25 0.35-1.98 0.35c-0.94 0-1.76-0.19-2.48-0.56c-0.71-0.37-1.27-0.89-1.66-1.55c-0.38-0.67-0.58-1.43-0.58-2.27c0-0.83 0.19-1.58 0.56-2.24c0.38-0.67 0.91-1.19 1.58-1.57c0.67-0.37 1.43-0.56 2.27-0.56c0.83 0 1.57 0.19 2.22 0.56c0.66 0.36 1.17 0.88 1.54 1.55c0.37 0.66 0.56 1.43 0.56 2.3zm-4.32-2.82c-0.64 0-1.18 0.19-1.63 0.58c-0.44 0.37-0.7 0.88-0.8 1.5h4.85c-0.09-0.62-0.35-1.12-0.78-1.5c-0.44-0.38-0.98-0.58-1.63-0.58z" />
	<path id="Layer" class="s7" d="m455 273c0-1.66 1.34-3 3-3h20c1.66 0 3 1.34 3 3v20c0 1.66-1.34 3-3 3h-20c-1.66 0-3-1.34-3-3v-20z" />
	<path id="Layer" fill-rule="evenodd" class="s1" d="m508.5 277.8h2.08v9.44h5.86v1.76h-7.94v-11.2zm9.39 2.66h2v8.54h-2v-8.54zm1.01-1.41c-0.36 0-0.67-0.11-0.91-0.34c-0.25-0.24-0.37-0.52-0.37-0.86c0-0.34 0.12-0.62 0.37-0.85c0.25-0.24 0.55-0.35 0.91-0.35c0.36 0 0.67 0.11 0.91 0.34c0.25 0.21 0.37 0.49 0.37 0.82c0 0.35-0.12 0.65-0.37 0.9c-0.23 0.23-0.54 0.35-0.91 0.35zm11.97 1.41v11.65h-2v-4.14c-0.67 0.77-1.58 1.15-2.74 1.15c-0.83 0-1.58-0.18-2.24-0.54c-0.65-0.36-1.16-0.88-1.54-1.54c-0.36-0.66-0.54-1.43-0.54-2.3c0-0.86 0.19-1.63 0.56-2.29c0.37-0.66 0.88-1.17 1.54-1.54c0.65-0.36 1.39-0.54 2.22-0.54c0.59 0 1.12 0.1 1.6 0.3c0.49 0.2 0.9 0.51 1.23 0.91v-1.12h1.9zm-4.51 6.94c0.74 0 1.34-0.25 1.82-0.74c0.48-0.49 0.72-1.14 0.72-1.94c0-0.8-0.24-1.44-0.72-1.94c-0.48-0.49-1.09-0.74-1.82-0.74c-0.74 0-1.34 0.25-1.82 0.74c-0.47 0.49-0.7 1.14-0.7 1.94c0 0.8 0.24 1.44 0.7 1.94c0.48 0.49 1.09 0.74 1.82 0.74zm15.4-6.94v8.54h-1.9v-1.09c-0.32 0.38-0.72 0.68-1.2 0.9c-0.48 0.2-1 0.3-1.55 0.3c-1.14 0-2.04-0.31-2.7-0.94c-0.65-0.64-0.98-1.58-0.98-2.83v-4.88h2v4.61c0 0.77 0.17 1.34 0.51 1.73c0.35 0.37 0.85 0.56 1.49 0.56c0.72 0 1.28-0.22 1.7-0.66c0.43-0.45 0.64-1.09 0.64-1.92v-4.32h2zm2.62 0h2v8.54h-2v-8.54zm1.01-1.41c-0.36 0-0.67-0.11-0.91-0.34c-0.25-0.24-0.37-0.52-0.37-0.86c0-0.34 0.12-0.62 0.37-0.85c0.25-0.24 0.55-0.35 0.91-0.35c0.36 0 0.67 0.11 0.91 0.34c0.25 0.21 0.37 0.49 0.37 0.82c0 0.35-0.12 0.65-0.37 0.9c-0.24 0.23-0.54 0.35-0.91 0.35zm11.99-1.92v11.87h-1.92v-1.1c-0.33 0.4-0.74 0.71-1.23 0.91c-0.48 0.2-1.01 0.3-1.6 0.3c-0.82 0-1.56-0.18-2.22-0.54c-0.65-0.36-1.16-0.88-1.54-1.54c-0.37-0.67-0.56-1.44-0.56-2.3c0-0.86 0.19-1.63 0.56-2.29c0.37-0.66 0.88-1.17 1.54-1.54c0.66-0.36 1.4-0.54 2.22-0.54c0.57 0 1.08 0.1 1.55 0.29c0.47 0.19 0.87 0.48 1.2 0.86v-4.38h2zm-4.51 10.27c0.48 0 0.91-0.11 1.3-0.32c0.38-0.22 0.69-0.54 0.91-0.94c0.22-0.41 0.34-0.88 0.34-1.41c0-0.53-0.11-1-0.34-1.41c-0.22-0.4-0.53-0.71-0.91-0.93c-0.38-0.22-0.82-0.34-1.3-0.34c-0.48 0-0.91 0.11-1.3 0.34c-0.38 0.21-0.69 0.52-0.91 0.93c-0.22 0.41-0.34 0.88-0.34 1.41c0 0.53 0.11 1 0.34 1.41c0.22 0.4 0.53 0.72 0.91 0.94c0.38 0.21 0.82 0.32 1.3 0.32zm7.13-6.94h2v8.54h-2v-8.54zm1.01-1.41c-0.36 0-0.67-0.11-0.91-0.34c-0.25-0.24-0.37-0.52-0.37-0.86c0-0.34 0.12-0.62 0.37-0.85c0.25-0.24 0.55-0.35 0.91-0.35c0.36 0 0.67 0.11 0.91 0.34c0.25 0.21 0.37 0.49 0.37 0.82c0 0.35-0.12 0.65-0.37 0.9c-0.24 0.23-0.54 0.35-0.91 0.35zm8.75 9.49c-0.24 0.19-0.52 0.34-0.86 0.43c-0.33 0.1-0.68 0.14-1.06 0.14c-0.94 0-1.66-0.25-2.18-0.74c-0.51-0.49-0.77-1.2-0.77-2.14v-4.11h-1.41v-1.6h1.41v-1.95h2v1.95h2.29v1.6h-2.29v4.06c0 0.42 0.1 0.74 0.3 0.96c0.2 0.21 0.5 0.32 0.88 0.32c0.45 0 0.82-0.12 1.12-0.35l0.56 1.42zm9.49-8.08l-4 9.23c-0.37 0.93-0.83 1.58-1.36 1.95c-0.53 0.38-1.18 0.58-1.94 0.58c-0.43 0-0.85-0.07-1.26-0.21c-0.42-0.14-0.76-0.33-1.02-0.58l0.8-1.47c0.19 0.18 0.42 0.33 0.67 0.43c0.27 0.11 0.53 0.16 0.8 0.16c0.35 0 0.64-0.09 0.86-0.27c0.24-0.18 0.45-0.48 0.64-0.91l0.14-0.34l-3.73-8.58h2.08l2.69 6.32l2.7-6.32h1.92z" />
	<path id="Layer" class="s8" d="m455 314c0-1.66 1.34-3 3-3h20c1.66 0 3 1.34 3 3v20c0 1.66-1.34 3-3 3h-20c-1.66 0-3-1.34-3-3v-20z" />
	<path id="Layer" fill-rule="evenodd" class="s1" d="m511.98 330.16c-0.86 0-1.7-0.12-2.51-0.37c-0.8-0.24-1.44-0.57-1.9-0.98l0.72-1.62c0.46 0.36 1.02 0.66 1.68 0.9c0.67 0.22 1.34 0.34 2.02 0.34c0.83 0 1.45-0.13 1.86-0.4c0.42-0.27 0.62-0.62 0.62-1.06c0-0.32-0.12-0.58-0.35-0.78c-0.22-0.21-0.51-0.38-0.86-0.5c-0.35-0.12-0.83-0.25-1.44-0.4c-0.85-0.2-1.55-0.4-2.08-0.61c-0.52-0.2-0.98-0.52-1.36-0.94c-0.37-0.44-0.56-1.02-0.56-1.76c0-0.62 0.16-1.18 0.5-1.68c0.34-0.51 0.85-0.92 1.52-1.22c0.68-0.3 1.52-0.45 2.5-0.45c0.68 0 1.36 0.09 2.02 0.26c0.66 0.17 1.23 0.42 1.71 0.74l-0.66 1.62c-0.49-0.29-1-0.51-1.54-0.66c-0.53-0.15-1.05-0.22-1.55-0.22c-0.82 0-1.44 0.14-1.84 0.42c-0.4 0.28-0.59 0.64-0.59 1.1c0 0.32 0.11 0.58 0.34 0.78c0.24 0.2 0.53 0.36 0.88 0.48c0.35 0.12 0.83 0.25 1.44 0.4c0.83 0.19 1.51 0.39 2.05 0.61c0.53 0.2 0.99 0.52 1.36 0.94c0.38 0.43 0.58 1 0.58 1.73c0 0.62-0.17 1.18-0.51 1.68c-0.33 0.5-0.84 0.9-1.52 1.2c-0.68 0.3-1.51 0.45-2.5 0.45zm11.53-0.62c-0.24 0.19-0.52 0.34-0.86 0.43c-0.33 0.1-0.68 0.14-1.06 0.14c-0.94 0-1.66-0.25-2.18-0.74c-0.51-0.49-0.77-1.2-0.77-2.14v-4.11h-1.41v-1.6h1.41v-1.95h2v1.95h2.29v1.6h-2.29v4.06c0 0.42 0.1 0.74 0.3 0.96c0.2 0.21 0.5 0.32 0.88 0.32c0.45 0 0.82-0.12 1.12-0.35l0.56 1.42zm4.91-8.18c1.26 0 2.22 0.3 2.88 0.91c0.67 0.6 1.01 1.5 1.01 2.72v5.01h-1.89v-1.04c-0.25 0.37-0.6 0.66-1.06 0.86c-0.45 0.19-0.99 0.29-1.63 0.29c-0.64 0-1.2-0.11-1.68-0.32c-0.48-0.22-0.85-0.53-1.12-0.91c-0.26-0.39-0.38-0.84-0.38-1.33c0-0.77 0.28-1.38 0.85-1.84c0.58-0.47 1.48-0.7 2.7-0.7h2.21v-0.13c0-0.6-0.18-1.06-0.54-1.38c-0.35-0.32-0.88-0.48-1.58-0.48c-0.48 0-0.95 0.07-1.42 0.22c-0.46 0.15-0.85 0.36-1.17 0.62l-0.78-1.46c0.45-0.34 0.99-0.6 1.62-0.78c0.63-0.18 1.3-0.27 2-0.27zm-0.27 7.3c0.5 0 0.94-0.11 1.33-0.34c0.39-0.24 0.67-0.56 0.83-0.99v-0.99h-2.06c-1.15 0-1.73 0.38-1.73 1.14c0 0.36 0.14 0.65 0.43 0.86c0.29 0.21 0.69 0.32 1.2 0.32zm10.22-2.32l-1.49 1.41v2.26h-2v-11.87h2v7.17l4.14-3.84h2.4l-3.57 3.58l3.9 4.96h-2.43l-2.96-3.66zm14.36-0.56c0 0.14-0.01 0.34-0.03 0.59h-6.7c0.12 0.63 0.42 1.13 0.91 1.5c0.5 0.36 1.12 0.54 1.86 0.54c0.94 0 1.71-0.31 2.32-0.93l1.07 1.23c-0.38 0.46-0.87 0.8-1.46 1.04c-0.59 0.24-1.25 0.35-1.98 0.35c-0.94 0-1.76-0.19-2.48-0.56c-0.71-0.37-1.27-0.89-1.66-1.55c-0.38-0.67-0.58-1.43-0.58-2.27c0-0.83 0.19-1.58 0.56-2.24c0.38-0.67 0.91-1.19 1.58-1.57c0.67-0.37 1.43-0.56 2.27-0.56c0.83 0 1.57 0.19 2.22 0.56c0.66 0.36 1.17 0.88 1.54 1.55c0.37 0.66 0.56 1.43 0.56 2.3zm-4.32-2.82c-0.64 0-1.18 0.19-1.63 0.58c-0.44 0.37-0.7 0.88-0.8 1.5h4.85c-0.09-0.62-0.35-1.12-0.78-1.5c-0.44-0.38-0.98-0.58-1.63-0.58z" />
	<path id="Layer" class="s8" d="m142.9 303.32c16.13 4.94 33.07 6.65 49.86 5.04c16.79-1.61 33.1-6.51 48-14.43c14.9-7.91 28.09-18.68 38.82-31.7c10.73-13.01 18.8-28.01 23.74-44.14l49.77 15.24c-6.94 22.67-18.27 43.74-33.36 62.03c-15.08 18.29-33.62 33.42-54.55 44.54c-20.93 11.12-43.85 18.01-67.45 20.27c-23.59 2.26-47.41-0.14-70.07-7.08l15.24-49.77z" />
	<path id="Layer" class="s7" d="m56.87 215.32c7.75 27.52 24.46 51.66 47.48 68.61c23.02 16.95 51.04 25.73 79.62 24.96l1.41 52.04c-40.16 1.09-79.54-11.26-111.89-35.08c-32.35-23.82-55.84-57.75-66.73-96.42l50.1-14.11z" />
	<path id="Layer" class="s3" d="m35.48 73.03c11.28-15.22 24.88-28.56 40.31-39.55l30.2 42.4c-10.98 7.82-20.66 17.32-28.68 28.15l-41.82-30.99z" />
	<path id="Layer" class="s4" d="m9.58 122.48c6.09-17.94 14.96-34.8 26.29-49.98l41.71 31.15c-8.06 10.8-14.38 22.8-18.71 35.56l-49.29-16.73z" />
	<path id="Layer" class="s2" d="m75.43 33.73c15.4-11.03 32.44-19.56 50.5-25.28l15.74 49.62c-12.85 4.08-24.97 10.15-35.93 17.99l-30.3-42.33z" />
	<path id="Layer" class="s5" d="m20.45 263.95c-11.39-21.86-18.19-45.81-19.97-70.4c-1.78-24.58 1.49-49.27 9.61-72.54l49.15 17.16c-5.78 16.56-8.11 34.13-6.84 51.62c1.27 17.49 6.11 34.54 14.21 50.09l-46.16 24.06z" />
	<path id="Layer" class="s6" d="m180.5 0c28.27 0 56.14 6.64 81.37 19.38c25.23 12.74 47.12 31.24 63.9 53.99c16.78 22.75 27.98 49.12 32.7 76.99c4.72 27.87 2.83 56.46-5.52 83.47l-49.73-15.38c5.94-19.22 7.29-39.56 3.93-59.4c-3.36-19.83-11.33-38.6-23.27-54.79c-11.94-16.19-27.51-29.35-45.47-38.42c-17.96-9.07-37.79-13.79-57.91-13.79v-52.05z" />
	<path id="Layer" class="s9" d="m126.04 8.41c18.06-5.71 36.9-8.55 55.84-8.41l-0.4 52.05c-13.48-0.1-26.89 1.91-39.74 5.98l-15.7-49.63z" />
	<g id="Layer">
		<path id="Layer" fill-rule="evenodd" class="s1" d="m12.4 194.2v16.8h-3.12v-14.18h-3.55v-2.62h6.67zm10.34 17.04c-1.34 0-2.54-0.34-3.6-1.01c-1.06-0.69-1.89-1.68-2.5-2.98c-0.61-1.31-0.91-2.86-0.91-4.66c0-1.79 0.3-3.34 0.91-4.63c0.61-1.31 1.44-2.3 2.5-2.98c1.06-0.69 2.26-1.03 3.6-1.03c1.34 0 2.54 0.34 3.6 1.03c1.07 0.67 1.91 1.66 2.52 2.98c0.61 1.3 0.91 2.84 0.91 4.63c0 1.79-0.3 3.34-0.91 4.66c-0.61 1.3-1.45 2.29-2.52 2.98c-1.06 0.67-2.26 1.01-3.6 1.01zm0-2.71c1.2 0 2.14-0.5 2.83-1.49c0.7-0.99 1.06-2.47 1.06-4.44c0-1.97-0.35-3.45-1.06-4.44c-0.69-0.99-1.63-1.49-2.83-1.49c-1.18 0-2.13 0.5-2.83 1.49c-0.69 0.99-1.03 2.47-1.03 4.44c0 1.97 0.34 3.45 1.03 4.44c0.7 0.99 1.65 1.49 2.83 1.49zm12.88-5.28c-1.2 0-2.17-0.42-2.9-1.27c-0.74-0.85-1.1-1.96-1.1-3.34c0-1.38 0.37-2.49 1.1-3.34c0.74-0.85 1.7-1.27 2.9-1.27c1.2 0 2.17 0.42 2.9 1.27c0.75 0.83 1.13 1.94 1.13 3.34c0 1.39-0.38 2.51-1.13 3.36c-0.74 0.83-1.7 1.25-2.9 1.25zm10.08-9.05h2.35l-11.47 16.8h-2.35l11.47-16.8zm-10.08 7.37c0.66 0 1.16-0.26 1.51-0.77c0.37-0.51 0.55-1.23 0.55-2.16c0-0.93-0.18-1.65-0.55-2.16c-0.35-0.51-0.86-0.77-1.51-0.77c-0.62 0-1.13 0.26-1.51 0.79c-0.37 0.51-0.55 1.22-0.55 2.14c0 0.91 0.18 1.63 0.55 2.16c0.38 0.51 0.89 0.77 1.51 0.77zm11.02 9.6c-1.2 0-2.17-0.42-2.9-1.27c-0.74-0.85-1.1-1.96-1.1-3.34c0-1.38 0.37-2.49 1.1-3.34c0.74-0.85 1.7-1.27 2.9-1.27c1.2 0 2.17 0.42 2.9 1.27c0.75 0.85 1.13 1.96 1.13 3.34c0 1.38-0.38 2.49-1.13 3.34c-0.74 0.85-1.7 1.27-2.9 1.27zm0-1.68c0.64 0 1.14-0.26 1.51-0.77c0.37-0.53 0.55-1.25 0.55-2.16c0-0.91-0.18-1.62-0.55-2.14c-0.37-0.53-0.87-0.79-1.51-0.79c-0.64 0-1.14 0.26-1.51 0.77c-0.37 0.51-0.55 1.23-0.55 2.16c0 0.93 0.18 1.65 0.55 2.16c0.37 0.51 0.87 0.77 1.51 0.77z" />
	</g>
	<g id="Layer">
		<path id="Layer" fill-rule="evenodd" class="s1" d="m304.63 101.14c1.55 0.19 2.74 0.72 3.55 1.58c0.82 0.86 1.22 1.94 1.22 3.24c0 0.98-0.25 1.86-0.74 2.66c-0.5 0.8-1.25 1.44-2.26 1.92c-0.99 0.46-2.21 0.7-3.65 0.7c-1.2 0-2.36-0.17-3.48-0.5c-1.1-0.35-2.05-0.83-2.83-1.44l1.34-2.42c0.61 0.51 1.34 0.92 2.21 1.22c0.88 0.29 1.78 0.43 2.71 0.43c1.1 0 1.97-0.22 2.59-0.67c0.64-0.46 0.96-1.09 0.96-1.87c0-0.78-0.3-1.39-0.91-1.82c-0.59-0.45-1.5-0.67-2.74-0.67h-1.54v-2.14l3.82-4.54h-7.63v-2.62h11.45v2.09l-4.08 4.85zm11.84-0.43c2.37 0 4.12 0.46 5.26 1.39c1.14 0.91 1.7 2.16 1.7 3.74c0 1.01-0.25 1.92-0.74 2.74c-0.5 0.82-1.24 1.46-2.23 1.94c-0.99 0.48-2.22 0.72-3.67 0.72c-1.2 0-2.36-0.17-3.48-0.5c-1.12-0.35-2.06-0.83-2.83-1.44l1.32-2.42c0.62 0.51 1.37 0.92 2.23 1.22c0.88 0.29 1.78 0.43 2.71 0.43c1.1 0 1.97-0.22 2.59-0.67c0.64-0.46 0.96-1.1 0.96-1.9c0-0.86-0.34-1.51-1.03-1.94c-0.67-0.45-1.83-0.67-3.48-0.67h-4.06l0.86-9.14h9.86v2.62h-7.22l-0.36 3.89h1.61zm12.27 2.54c-1.2 0-2.17-0.42-2.9-1.27c-0.74-0.85-1.1-1.96-1.1-3.34c0-1.38 0.37-2.49 1.1-3.34c0.74-0.85 1.7-1.27 2.9-1.27c1.2 0 2.17 0.42 2.9 1.27c0.75 0.83 1.13 1.94 1.13 3.34c0 1.39-0.38 2.51-1.13 3.36c-0.74 0.83-1.7 1.25-2.9 1.25zm10.08-9.05h2.35l-11.47 16.8h-2.35l11.47-16.8zm-10.08 7.37c0.66 0 1.16-0.26 1.51-0.77c0.37-0.51 0.55-1.23 0.55-2.16c0-0.93-0.18-1.65-0.55-2.16c-0.35-0.51-0.86-0.77-1.51-0.77c-0.62 0-1.13 0.26-1.51 0.79c-0.37 0.51-0.55 1.22-0.55 2.14c0 0.91 0.18 1.63 0.55 2.16c0.38 0.51 0.89 0.77 1.51 0.77zm11.02 9.6c-1.2 0-2.17-0.42-2.9-1.27c-0.74-0.85-1.1-1.96-1.1-3.34c0-1.38 0.37-2.49 1.1-3.34c0.74-0.85 1.7-1.27 2.9-1.27c1.2 0 2.17 0.42 2.9 1.27c0.75 0.85 1.13 1.96 1.13 3.34c0 1.38-0.38 2.49-1.13 3.34c-0.74 0.85-1.7 1.27-2.9 1.27zm0-1.68c0.64 0 1.14-0.26 1.51-0.77c0.37-0.53 0.55-1.25 0.55-2.16c0-0.91-0.18-1.62-0.55-2.14c-0.37-0.53-0.87-0.79-1.51-0.79c-0.64 0-1.14 0.26-1.51 0.77c-0.37 0.51-0.55 1.23-0.55 2.16c0 0.93 0.18 1.65 0.55 2.16c0.37 0.51 0.87 0.77 1.51 0.77z" />
	</g>
	<g id="Layer">
		<path id="Layer" fill-rule="evenodd" class="s1" d="m151.6 27.7c2.37 0 4.12 0.46 5.26 1.39c1.14 0.91 1.7 2.16 1.7 3.74c0 1.01-0.25 1.92-0.74 2.74c-0.5 0.82-1.24 1.46-2.23 1.94c-0.99 0.48-2.22 0.72-3.67 0.72c-1.2 0-2.36-0.17-3.48-0.5c-1.12-0.35-2.06-0.83-2.83-1.44l1.32-2.42c0.62 0.51 1.37 0.92 2.23 1.22c0.88 0.29 1.78 0.43 2.71 0.43c1.1 0 1.97-0.22 2.59-0.67c0.64-0.46 0.96-1.1 0.96-1.9c0-0.86-0.34-1.51-1.03-1.94c-0.67-0.45-1.83-0.67-3.48-0.67h-4.06l0.86-9.14h9.86v2.62h-7.22l-0.36 3.89h1.61zm12.27 2.54c-1.2 0-2.17-0.42-2.9-1.27c-0.74-0.85-1.1-1.96-1.1-3.34c0-1.38 0.37-2.49 1.1-3.34c0.74-0.85 1.7-1.27 2.9-1.27c1.2 0 2.17 0.42 2.9 1.27c0.75 0.83 1.13 1.94 1.13 3.34c0 1.39-0.38 2.51-1.13 3.36c-0.74 0.83-1.7 1.25-2.9 1.25zm10.08-9.05h2.35l-11.47 16.8h-2.35l11.47-16.8zm-10.08 7.37c0.66 0 1.16-0.26 1.51-0.77c0.37-0.51 0.55-1.23 0.55-2.16c0-0.93-0.18-1.65-0.55-2.16c-0.35-0.51-0.86-0.77-1.51-0.77c-0.62 0-1.13 0.26-1.51 0.79c-0.37 0.51-0.55 1.22-0.55 2.14c0 0.91 0.18 1.63 0.55 2.16c0.38 0.51 0.89 0.77 1.51 0.77zm11.02 9.6c-1.2 0-2.17-0.42-2.9-1.27c-0.74-0.85-1.1-1.96-1.1-3.34c0-1.38 0.37-2.49 1.1-3.34c0.74-0.85 1.7-1.27 2.9-1.27c1.2 0 2.17 0.42 2.9 1.27c0.75 0.85 1.13 1.96 1.13 3.34c0 1.38-0.38 2.49-1.13 3.34c-0.74 0.85-1.7 1.27-2.9 1.27zm0-1.68c0.64 0 1.14-0.26 1.51-0.77c0.37-0.53 0.55-1.25 0.55-2.16c0-0.91-0.18-1.62-0.55-2.14c-0.37-0.53-0.87-0.79-1.51-0.79c-0.64 0-1.14 0.26-1.51 0.77c-0.37 0.51-0.55 1.23-0.55 2.16c0 0.93 0.18 1.65 0.55 2.16c0.37 0.51 0.87 0.77 1.51 0.77z" />
	</g>
	<g id="Layer">
		<path id="Layer" fill-rule="evenodd" class="s1" d="m99.6 40.7c2.37 0 4.12 0.46 5.26 1.39c1.14 0.91 1.7 2.16 1.7 3.74c0 1.01-0.25 1.92-0.74 2.74c-0.5 0.82-1.24 1.46-2.23 1.94c-0.99 0.48-2.22 0.72-3.67 0.72c-1.2 0-2.36-0.17-3.48-0.5c-1.12-0.35-2.06-0.83-2.83-1.44l1.32-2.42c0.62 0.51 1.37 0.92 2.23 1.22c0.88 0.29 1.78 0.43 2.71 0.43c1.1 0 1.97-0.22 2.59-0.67c0.64-0.46 0.96-1.1 0.96-1.9c0-0.86-0.34-1.51-1.03-1.94c-0.67-0.45-1.83-0.67-3.48-0.67h-4.06l0.86-9.14h9.86v2.62h-7.22l-0.36 3.89h1.61zm12.27 2.54c-1.2 0-2.17-0.42-2.9-1.27c-0.74-0.85-1.1-1.96-1.1-3.34c0-1.38 0.37-2.49 1.1-3.34c0.74-0.85 1.7-1.27 2.9-1.27c1.2 0 2.17 0.42 2.9 1.27c0.75 0.83 1.13 1.94 1.13 3.34c0 1.39-0.38 2.51-1.13 3.36c-0.74 0.83-1.7 1.25-2.9 1.25zm10.08-9.05h2.35l-11.47 16.8h-2.35l11.47-16.8zm-10.08 7.37c0.66 0 1.16-0.26 1.51-0.77c0.37-0.51 0.55-1.23 0.55-2.16c0-0.93-0.18-1.65-0.55-2.16c-0.35-0.51-0.86-0.77-1.51-0.77c-0.62 0-1.13 0.26-1.51 0.79c-0.37 0.51-0.55 1.22-0.55 2.14c0 0.91 0.18 1.63 0.55 2.16c0.38 0.51 0.89 0.77 1.51 0.77zm11.02 9.6c-1.2 0-2.17-0.42-2.9-1.27c-0.74-0.85-1.1-1.96-1.1-3.34c0-1.38 0.37-2.49 1.1-3.34c0.74-0.85 1.7-1.27 2.9-1.27c1.2 0 2.17 0.42 2.9 1.27c0.75 0.85 1.13 1.96 1.13 3.34c0 1.38-0.38 2.49-1.13 3.34c-0.74 0.85-1.7 1.27-2.9 1.27zm0-1.68c0.64 0 1.14-0.26 1.51-0.77c0.37-0.53 0.55-1.25 0.55-2.16c0-0.91-0.18-1.62-0.55-2.14c-0.37-0.53-0.87-0.79-1.51-0.79c-0.64 0-1.14 0.26-1.51 0.77c-0.37 0.51-0.55 1.23-0.55 2.16c0 0.93 0.18 1.65 0.55 2.16c0.37 0.51 0.87 0.77 1.51 0.77z" />
	</g>
	<g id="Layer">
		<path id="Layer" fill-rule="evenodd" class="s1" d="m31.6 108.7c2.37 0 4.12 0.46 5.26 1.39c1.14 0.91 1.7 2.16 1.7 3.74c0 1.01-0.25 1.92-0.74 2.74c-0.5 0.82-1.24 1.46-2.23 1.94c-0.99 0.48-2.22 0.72-3.67 0.72c-1.2 0-2.36-0.17-3.48-0.5c-1.12-0.35-2.06-0.83-2.83-1.44l1.32-2.42c0.62 0.51 1.37 0.92 2.23 1.22c0.88 0.29 1.78 0.43 2.71 0.43c1.1 0 1.97-0.22 2.59-0.67c0.64-0.46 0.96-1.1 0.96-1.9c0-0.86-0.34-1.51-1.03-1.94c-0.67-0.45-1.83-0.67-3.48-0.67h-4.06l0.86-9.14h9.86v2.62h-7.22l-0.36 3.89h1.61zm12.27 2.54c-1.2 0-2.17-0.42-2.9-1.27c-0.74-0.85-1.1-1.96-1.1-3.34c0-1.38 0.37-2.49 1.1-3.34c0.74-0.85 1.7-1.27 2.9-1.27c1.2 0 2.17 0.42 2.9 1.27c0.75 0.83 1.13 1.94 1.13 3.34c0 1.39-0.38 2.51-1.13 3.36c-0.74 0.83-1.7 1.25-2.9 1.25zm10.08-9.05h2.35l-11.47 16.8h-2.35l11.47-16.8zm-10.08 7.37c0.66 0 1.16-0.26 1.51-0.77c0.37-0.51 0.55-1.23 0.55-2.16c0-0.93-0.18-1.65-0.55-2.16c-0.35-0.51-0.86-0.77-1.51-0.77c-0.62 0-1.13 0.26-1.51 0.79c-0.37 0.51-0.55 1.22-0.55 2.14c0 0.91 0.18 1.63 0.55 2.16c0.38 0.51 0.89 0.77 1.51 0.77zm11.02 9.6c-1.2 0-2.17-0.42-2.9-1.27c-0.74-0.85-1.1-1.96-1.1-3.34c0-1.38 0.37-2.49 1.1-3.34c0.74-0.85 1.7-1.27 2.9-1.27c1.2 0 2.17 0.42 2.9 1.27c0.75 0.85 1.13 1.96 1.13 3.34c0 1.38-0.38 2.49-1.13 3.34c-0.74 0.85-1.7 1.27-2.9 1.27zm0-1.68c0.64 0 1.14-0.26 1.51-0.77c0.37-0.53 0.55-1.25 0.55-2.16c0-0.91-0.18-1.62-0.55-2.14c-0.37-0.53-0.87-0.79-1.51-0.79c-0.64 0-1.14 0.26-1.51 0.77c-0.37 0.51-0.55 1.23-0.55 2.16c0 0.93 0.18 1.65 0.55 2.16c0.37 0.51 0.87 0.77 1.51 0.77z" />
	</g>
	<g id="Layer">
		<path id="Layer" fill-rule="evenodd" class="s1" d="m64.6 70.7c2.37 0 4.12 0.46 5.26 1.39c1.14 0.91 1.7 2.16 1.7 3.74c0 1.01-0.25 1.92-0.74 2.74c-0.5 0.82-1.24 1.46-2.23 1.94c-0.99 0.48-2.22 0.72-3.67 0.72c-1.2 0-2.36-0.17-3.48-0.5c-1.12-0.35-2.06-0.83-2.83-1.44l1.32-2.42c0.62 0.51 1.37 0.92 2.23 1.22c0.88 0.29 1.78 0.43 2.71 0.43c1.1 0 1.97-0.22 2.59-0.67c0.64-0.46 0.96-1.1 0.96-1.9c0-0.86-0.34-1.51-1.03-1.94c-0.67-0.45-1.83-0.67-3.48-0.67h-4.06l0.86-9.14h9.86v2.62h-7.22l-0.36 3.89h1.61zm12.27 2.54c-1.2 0-2.17-0.42-2.9-1.27c-0.74-0.85-1.1-1.96-1.1-3.34c0-1.38 0.37-2.49 1.1-3.34c0.74-0.85 1.7-1.27 2.9-1.27c1.2 0 2.17 0.42 2.9 1.27c0.75 0.83 1.13 1.94 1.13 3.34c0 1.39-0.38 2.51-1.13 3.36c-0.74 0.83-1.7 1.25-2.9 1.25zm10.08-9.05h2.35l-11.47 16.8h-2.35l11.47-16.8zm-10.08 7.37c0.66 0 1.16-0.26 1.51-0.77c0.37-0.51 0.55-1.23 0.55-2.16c0-0.93-0.18-1.65-0.55-2.16c-0.35-0.51-0.86-0.77-1.51-0.77c-0.62 0-1.13 0.26-1.51 0.79c-0.37 0.51-0.55 1.22-0.55 2.14c0 0.91 0.18 1.63 0.55 2.16c0.38 0.51 0.89 0.77 1.51 0.77zm11.02 9.6c-1.2 0-2.17-0.42-2.9-1.27c-0.74-0.85-1.1-1.96-1.1-3.34c0-1.38 0.37-2.49 1.1-3.34c0.74-0.85 1.7-1.27 2.9-1.27c1.2 0 2.17 0.42 2.9 1.27c0.75 0.85 1.13 1.96 1.13 3.34c0 1.38-0.38 2.49-1.13 3.34c-0.74 0.85-1.7 1.27-2.9 1.27zm0-1.68c0.64 0 1.14-0.26 1.51-0.77c0.37-0.53 0.55-1.25 0.55-2.16c0-0.91-0.18-1.62-0.55-2.14c-0.37-0.53-0.87-0.79-1.51-0.79c-0.64 0-1.14 0.26-1.51 0.77c-0.37 0.51-0.55 1.23-0.55 2.16c0 0.93 0.18 1.65 0.55 2.16c0.37 0.51 0.87 0.77 1.51 0.77z" />
	</g>
	<g id="Layer">
		<path id="Layer" fill-rule="evenodd" class="s1" d="m78.58 298.2v16.8h-3.12v-14.18h-3.55v-2.62h6.67zm8.59 6.5c2.37 0 4.12 0.46 5.26 1.39c1.14 0.91 1.7 2.16 1.7 3.74c0 1.01-0.25 1.92-0.74 2.74c-0.5 0.82-1.24 1.46-2.23 1.94c-0.99 0.48-2.22 0.72-3.67 0.72c-1.2 0-2.36-0.17-3.48-0.5c-1.12-0.35-2.06-0.83-2.83-1.44l1.32-2.42c0.62 0.51 1.37 0.92 2.23 1.22c0.88 0.29 1.78 0.43 2.71 0.43c1.1 0 1.97-0.22 2.59-0.67c0.64-0.46 0.96-1.1 0.96-1.9c0-0.86-0.34-1.51-1.03-1.94c-0.67-0.45-1.83-0.67-3.48-0.67h-4.06l0.86-9.14h9.86v2.62h-7.22l-0.36 3.89h1.61zm12.27 2.54c-1.2 0-2.17-0.42-2.9-1.27c-0.74-0.85-1.1-1.96-1.1-3.34c0-1.38 0.37-2.49 1.1-3.34c0.74-0.85 1.7-1.27 2.9-1.27c1.2 0 2.17 0.42 2.9 1.27c0.75 0.83 1.13 1.94 1.13 3.34c0 1.39-0.38 2.51-1.13 3.36c-0.74 0.83-1.7 1.25-2.9 1.25zm10.08-9.05h2.35l-11.47 16.8h-2.35l11.47-16.8zm-10.08 7.37c0.66 0 1.16-0.26 1.51-0.77c0.37-0.51 0.55-1.23 0.55-2.16c0-0.93-0.18-1.65-0.55-2.16c-0.35-0.51-0.86-0.77-1.51-0.77c-0.62 0-1.13 0.26-1.51 0.79c-0.37 0.51-0.55 1.22-0.55 2.14c0 0.91 0.18 1.63 0.55 2.16c0.38 0.51 0.89 0.77 1.51 0.77zm11.02 9.6c-1.2 0-2.17-0.42-2.9-1.27c-0.74-0.85-1.1-1.96-1.1-3.34c0-1.38 0.37-2.49 1.1-3.34c0.74-0.85 1.7-1.27 2.9-1.27c1.2 0 2.17 0.42 2.9 1.27c0.75 0.85 1.13 1.96 1.13 3.34c0 1.38-0.38 2.49-1.13 3.34c-0.74 0.85-1.7 1.27-2.9 1.27zm0-1.68c0.64 0 1.14-0.26 1.51-0.77c0.37-0.53 0.55-1.25 0.55-2.16c0-0.91-0.18-1.62-0.55-2.14c-0.37-0.53-0.87-0.79-1.51-0.79c-0.64 0-1.14 0.26-1.51 0.77c-0.37 0.51-0.55 1.23-0.55 2.16c0 0.93 0.18 1.65 0.55 2.16c0.37 0.51 0.87 0.77 1.51 0.77z" />
	</g>
	<g id="Layer">
		<path id="Layer" fill-rule="evenodd" class="s1" d="m271.88 304.36v2.64h-12.38v-2.09l6.67-6.34c0.75-0.72 1.26-1.34 1.51-1.87c0.27-0.54 0.41-1.08 0.41-1.61c0-0.78-0.26-1.38-0.79-1.8c-0.53-0.42-1.3-0.62-2.33-0.62c-1.71 0-3.02 0.58-3.94 1.75l-2.18-1.68c0.66-0.88 1.54-1.56 2.64-2.04c1.12-0.5 2.37-0.74 3.74-0.74c1.82 0 3.28 0.43 4.37 1.3c1.09 0.86 1.63 2.04 1.63 3.53c0 0.91-0.19 1.77-0.58 2.57c-0.38 0.8-1.12 1.71-2.21 2.74l-4.49 4.27h7.92zm8.74 2.88c-1.34 0-2.54-0.34-3.6-1.01c-1.06-0.69-1.89-1.68-2.5-2.98c-0.61-1.31-0.91-2.86-0.91-4.66c0-1.79 0.3-3.34 0.91-4.63c0.61-1.31 1.44-2.3 2.5-2.98c1.06-0.69 2.26-1.03 3.6-1.03c1.34 0 2.54 0.34 3.6 1.03c1.07 0.67 1.91 1.66 2.52 2.98c0.61 1.3 0.91 2.84 0.91 4.63c0 1.79-0.3 3.34-0.91 4.66c-0.61 1.3-1.45 2.29-2.52 2.98c-1.06 0.67-2.26 1.01-3.6 1.01zm0-2.71c1.2 0 2.14-0.5 2.83-1.49c0.7-0.99 1.06-2.47 1.06-4.44c0-1.97-0.35-3.45-1.06-4.44c-0.69-0.99-1.63-1.49-2.83-1.49c-1.18 0-2.13 0.5-2.83 1.49c-0.69 0.99-1.03 2.47-1.03 4.44c0 1.97 0.34 3.45 1.03 4.44c0.7 0.99 1.65 1.49 2.83 1.49zm12.88-5.28c-1.2 0-2.17-0.42-2.9-1.27c-0.74-0.85-1.1-1.96-1.1-3.34c0-1.38 0.37-2.49 1.1-3.34c0.74-0.85 1.7-1.27 2.9-1.27c1.2 0 2.17 0.42 2.9 1.27c0.75 0.83 1.13 1.94 1.13 3.34c0 1.39-0.38 2.51-1.13 3.36c-0.74 0.83-1.7 1.25-2.9 1.25zm10.08-9.05h2.35l-11.47 16.8h-2.35l11.47-16.8zm-10.08 7.37c0.66 0 1.16-0.26 1.51-0.77c0.37-0.51 0.55-1.23 0.55-2.16c0-0.93-0.18-1.65-0.55-2.16c-0.35-0.51-0.86-0.77-1.51-0.77c-0.62 0-1.13 0.26-1.51 0.79c-0.37 0.51-0.55 1.22-0.55 2.14c0 0.91 0.18 1.63 0.55 2.16c0.38 0.51 0.89 0.77 1.51 0.77zm11.02 9.6c-1.2 0-2.17-0.42-2.9-1.27c-0.74-0.85-1.1-1.96-1.1-3.34c0-1.38 0.37-2.49 1.1-3.34c0.74-0.85 1.7-1.27 2.9-1.27c1.2 0 2.17 0.42 2.9 1.27c0.75 0.85 1.13 1.96 1.13 3.34c0 1.38-0.38 2.49-1.13 3.34c-0.74 0.85-1.7 1.27-2.9 1.27zm0-1.68c0.64 0 1.14-0.26 1.51-0.77c0.37-0.53 0.55-1.25 0.55-2.16c0-0.91-0.18-1.62-0.55-2.14c-0.37-0.53-0.87-0.79-1.51-0.79c-0.64 0-1.14 0.26-1.51 0.77c-0.37 0.51-0.55 1.23-0.55 2.16c0 0.93 0.18 1.65 0.55 2.16c0.37 0.51 0.87 0.77 1.51 0.77z" />
	</g>
</svg>